<svg width="167" height="162" viewBox="0 0 167 162" fill="none" xmlns="http://www.w3.org/2000/svg">
<path d="M56.3872 98.316L50.9012 119.241C50.7922 119.843 50.5742 119.948 49.8995 119.948H39.737C39.0364 119.948 38.9274 119.728 39.0364 118.937L58.6865 49.485C59.0394 48.228 59.2522 47.1124 59.3612 43.645C59.3612 43.1789 59.6051 42.9641 59.9581 42.9641H74.4491C74.911 42.9641 75.1498 43.0741 75.2588 43.645L97.2912 119.047C97.4261 119.618 97.2912 119.948 96.7254 119.948H85.3174C84.7205 119.948 84.3987 119.811 84.2897 119.345L78.5597 98.3108H56.3664L56.3872 98.316ZM75.6896 86.9659C73.7432 79.2456 69.1759 62.3331 67.4735 54.1466H67.3385C65.8801 62.3017 62.2002 76.1344 59.3664 86.9659H75.6896ZM106.831 48.1494C106.831 43.6503 109.914 41 113.915 41C118.135 41 121 43.8912 121 48.1494C121 52.7586 118.026 55.2989 113.78 55.2989C109.644 55.2989 106.805 52.7638 106.805 48.1494H106.831ZM107.614 64.0249C107.614 63.4801 107.832 63.2602 108.398 63.2602H119.266C119.889 63.2602 120.102 63.4801 120.102 64.0772V119.209C120.102 119.78 119.993 120 119.292 120H108.585C107.884 120 107.666 119.67 107.666 119.099V64.0196L107.614 64.0249Z" fill="#F2B749"/>
<path d="M12 0C5.37258 0 0 5.37258 0 12V150C0 156.627 5.37258 162 12 162H154.164C160.792 162 166.164 156.627 166.164 150V12C166.164 5.37259 160.792 0 154.164 0H12ZM6.92179 14.9218C6.92179 10.5035 10.5035 6.92179 14.9218 6.92179H151.237C155.656 6.92179 159.237 10.5035 159.237 14.9218V147.073C159.237 151.491 155.656 155.073 151.237 155.073H14.9218C10.5035 155.073 6.92179 151.491 6.92179 147.073V14.9218Z" fill="#F2B749"/>
</svg>
