<svg width="27" height="27" viewBox="0 0 27 27" fill="none" xmlns="http://www.w3.org/2000/svg">
<path d="M11.24 15.7299C11.24 16.8931 10.3962 17.2607 9.3596 17.2607H6.64152V14.0725H9.41384C10.5348 14.0786 11.24 14.5426 11.24 15.7299ZM10.7759 10.7699C10.7759 9.70312 9.95022 9.45 9.03415 9.45H6.64754V12.15H9.22098C10.131 12.15 10.7759 11.7522 10.7759 10.7699ZM18.7493 12.1681C17.6464 12.1681 16.9112 12.8551 16.8388 13.958H20.5875C20.485 12.8431 19.9065 12.1681 18.7493 12.1681ZM27 2.89286V24.1071C27 25.7042 25.7042 27 24.1071 27H2.89286C1.29576 27 0 25.7042 0 24.1071V2.89286C0 1.29576 1.29576 0 2.89286 0H24.1071C25.7042 0 27 1.29576 27 2.89286ZM16.3748 9.22098H21.0636V8.08192H16.3748V9.22098ZM13.7833 15.8685C13.7833 14.4161 13.0962 13.1625 11.6739 12.7587C12.7105 12.2645 13.2529 11.692 13.2529 10.5288C13.2529 8.22656 11.5353 7.66607 9.55246 7.66607H4.09821V19.2375H9.70915C11.8125 19.2254 13.7833 18.219 13.7833 15.8685ZM22.9018 14.9766C22.9018 12.4996 21.4493 10.4324 18.8277 10.4324C16.2723 10.4324 14.5426 12.3489 14.5426 14.8681C14.5426 17.4777 16.1879 19.2676 18.8277 19.2676C20.8286 19.2676 22.1243 18.3696 22.7511 16.4471H20.7201C20.4971 17.1643 19.5991 17.5379 18.9 17.5379C17.55 17.5379 16.8449 16.7484 16.8449 15.4105H22.8837C22.8897 15.2719 22.9018 15.1212 22.9018 14.9766Z" fill="#F2B749"/>
</svg>
