<svg width="77" height="78" viewBox="0 0 77 78" fill="none" xmlns="http://www.w3.org/2000/svg">
<path fill-rule="evenodd" clip-rule="evenodd" d="M6.20165 20.6865C9.97165 16.6797 11.3066 15.5558 12.9116 15.0367C14.0241 14.7417 15.1911 14.7244 16.3116 14.9863C17.7866 15.4197 18.1716 15.7473 23.0116 20.6008C27.2615 24.8647 27.6815 25.3283 28.0915 26.1448C28.8845 27.6144 29.012 29.3568 28.4415 30.9275C28.0215 32.1119 27.4015 32.8982 24.8266 35.5089L23.1466 37.2074C22.7046 37.6595 22.5998 38.3464 22.8866 38.9109C26.616 45.3248 31.906 50.6743 38.2565 54.4543C38.989 54.8504 39.8915 54.7219 40.4865 54.1367L42.1015 52.534C43.0995 51.5018 44.1565 50.5291 45.2665 49.6209C47.0075 48.5353 49.181 48.4304 51.0165 49.3437C51.9115 49.7671 52.2115 50.0443 56.5965 54.4492C61.0965 58.9852 61.2415 59.1314 61.7465 60.1746C62.6895 61.9029 62.68 63.9995 61.7215 65.7186C61.2215 66.6863 60.9415 67.0391 58.4015 69.6549C56.8665 71.2375 55.4015 72.6789 55.1915 72.8906C53.094 74.6384 50.405 75.4968 47.6915 75.2846C42.7275 74.8269 37.9235 73.2787 33.6165 70.7486C24.0708 65.6506 15.9449 58.2222 9.98164 49.1421C8.67759 47.244 7.51764 45.2492 6.51164 43.1747C3.83119 38.543 2.44544 33.2656 2.50164 27.9038C2.70324 25.089 4.0405 22.4805 6.20165 20.6865Z" stroke="#D0A9E4" stroke-width="5" stroke-linecap="round" stroke-linejoin="round"/>
<path d="M49.2084 1.16222C47.2589 0.456971 45.1119 1.47813 44.4119 3.44307C43.7124 5.40797 44.7254 7.57255 46.6749 8.27779L49.2084 1.16222ZM68.9339 30.3393C69.6664 32.2923 71.8304 33.2766 73.7679 32.5383C75.7049 31.7999 76.6819 29.6187 75.9494 27.6659L68.9339 30.3393ZM43.2679 12.388C41.2474 11.9281 39.2399 13.2061 38.7839 15.2424C38.3274 17.2788 39.5954 19.3024 41.6154 19.7623L43.2679 12.388ZM57.8479 35.8541C58.3379 37.8827 60.3664 39.1266 62.3784 38.6327C64.3909 38.1387 65.6249 36.0945 65.1354 34.0659L57.8479 35.8541ZM46.6749 8.27779C56.9409 11.992 65.0764 20.0553 68.9339 30.3393L75.9494 27.6659C71.3154 15.311 61.5419 5.62428 49.2084 1.16222L46.6749 8.27779ZM41.6154 19.7623C49.6189 21.5842 55.9074 27.8184 57.8479 35.8541L65.1354 34.0659C62.5209 23.2407 54.0489 14.8423 43.2679 12.388L41.6154 19.7623Z" fill="#D0A9E4"/>
</svg>
