<svg width="28" height="28" viewBox="0 0 28 28" fill="none" xmlns="http://www.w3.org/2000/svg">
<path d="M13.921 10.7716C13.2864 10.7719 12.6662 10.9602 12.1388 11.3129C11.6113 11.6656 11.2003 12.1668 10.9576 12.7531C10.715 13.3394 10.6516 13.9844 10.7755 14.6067C10.8995 15.229 11.2051 15.8006 11.6539 16.2492C12.1026 16.6978 12.6743 17.0032 13.2967 17.1269C13.919 17.2506 14.564 17.187 15.1502 16.9441C15.7364 16.7013 16.2374 16.29 16.5899 15.7624C16.9424 15.2348 17.1306 14.6146 17.1306 13.98C17.1299 13.1291 16.7915 12.3132 16.1897 11.7116C15.5879 11.11 14.7719 10.7719 13.921 10.7716ZM21.4223 8.30546C21.259 7.89153 21.0123 7.51558 20.6977 7.20092C20.383 6.88627 20.0071 6.63962 19.5931 6.47629C18.33 5.97764 15.3225 6.08952 13.921 6.08952C12.5194 6.08952 9.51494 5.97343 8.24817 6.47629C7.83424 6.63962 7.45828 6.88627 7.14363 7.20092C6.82897 7.51558 6.58233 7.89153 6.419 8.30546C5.92095 9.56862 6.03223 12.5791 6.03223 13.9794C6.03223 15.3797 5.92095 18.3867 6.4214 19.654C6.58474 20.068 6.83138 20.4439 7.14604 20.7586C7.46069 21.0732 7.83664 21.3199 8.25057 21.4832C9.51373 21.9819 12.5213 21.87 13.9234 21.87C15.3255 21.87 18.3288 21.9861 19.5955 21.4832C20.0095 21.3199 20.3854 21.0732 20.7001 20.7586C21.0147 20.4439 21.2614 20.068 21.4247 19.654C21.927 18.3909 21.8115 15.3803 21.8115 13.98C21.8115 12.5797 21.927 9.57343 21.4247 8.30606L21.4223 8.30546ZM13.921 18.9124C12.9454 18.9124 11.9918 18.6231 11.1807 18.0811C10.3696 17.5392 9.73739 16.7688 9.36407 15.8676C8.99075 14.9663 8.89308 13.9746 9.08339 13.0178C9.27371 12.061 9.74347 11.1822 10.4333 10.4924C11.1231 9.80256 12.0019 9.3328 12.9587 9.14249C13.9155 8.95217 14.9072 9.04985 15.8085 9.42317C16.7097 9.79648 17.4801 10.4287 18.022 11.2398C18.564 12.0509 18.8533 13.0045 18.8533 13.98C18.8541 14.628 18.727 15.2697 18.4794 15.8685C18.2318 16.4673 17.8686 17.0113 17.4104 17.4695C16.9522 17.9277 16.4082 18.2909 15.8094 18.5385C15.2106 18.7861 14.5689 18.9132 13.921 18.9124ZM19.0566 9.99208C18.8289 9.9922 18.6062 9.92478 18.4168 9.79834C18.2274 9.67191 18.0797 9.49215 17.9925 9.28179C17.9053 9.07143 17.8824 8.83993 17.9268 8.61657C17.9711 8.3932 18.0807 8.188 18.2417 8.02694C18.4027 7.86587 18.6078 7.75616 18.8312 7.71169C19.0545 7.66722 19.286 7.68998 19.4964 7.7771C19.7068 7.86422 19.8867 8.01178 20.0132 8.20112C20.1397 8.39046 20.2073 8.61307 20.2073 8.8408C20.2079 8.99202 20.1787 9.14189 20.1213 9.28179C20.0638 9.4217 19.9794 9.54889 19.8727 9.65607C19.766 9.76326 19.6392 9.84833 19.4996 9.9064C19.3599 9.96447 19.2102 9.99441 19.059 9.99448L19.0566 9.99208ZM24.5074 0.506363H3.33448C2.56875 0.506363 1.83437 0.810551 1.29291 1.35201C0.751454 1.89347 0.447266 2.62784 0.447266 3.39358L0.447266 24.5665C0.447266 25.3323 0.751454 26.0666 1.29291 26.6081C1.83437 27.1495 2.56875 27.4537 3.33448 27.4537H24.5074C25.2732 27.4537 26.0075 27.1495 26.549 26.6081C27.0904 26.0666 27.3946 25.3323 27.3946 24.5665V3.39358C27.3946 2.62784 27.0904 1.89347 26.549 1.35201C26.0075 0.810551 25.2732 0.506363 24.5074 0.506363ZM23.4776 17.95C23.4 19.4916 23.0482 20.8576 21.9228 21.98C20.7973 23.1025 19.4325 23.4616 17.8927 23.5349C16.3041 23.6246 11.5414 23.6246 9.95283 23.5349C8.41118 23.4573 7.04997 23.1049 5.92275 21.98C4.79554 20.8552 4.44125 19.4886 4.36787 17.95C4.27824 16.3608 4.27824 11.5975 4.36787 10.0101C4.44546 8.46847 4.79313 7.10245 5.92275 5.98005C7.05238 4.85764 8.41719 4.50275 9.95283 4.42937C11.5414 4.33975 16.3041 4.33975 17.8927 4.42937C19.4343 4.50696 20.7997 4.85945 21.9228 5.98426C23.0458 7.10907 23.4043 8.47569 23.4776 10.0173C23.5673 11.6005 23.5673 16.3596 23.4776 17.95Z" fill="#F2B749"/>
</svg>
