<svg width="28" height="27" viewBox="0 0 28 27" fill="none" xmlns="http://www.w3.org/2000/svg">
<path d="M25.4171 0H2.31333C1.25468 0 0.394531 0.872181 0.394531 1.94286V25.0045C0.394531 26.0752 1.25468 26.9474 2.31333 26.9474H25.4171C26.4757 26.9474 27.3419 26.0752 27.3419 25.0045V1.94286C27.3419 0.872181 26.4757 0 25.4171 0ZM8.53889 23.0977H4.54491V10.2376H8.54491V23.0977H8.53889ZM6.5419 8.4812C5.2607 8.4812 4.22611 7.4406 4.22611 6.16541C4.22611 4.89023 5.2607 3.84962 6.5419 3.84962C7.81709 3.84962 8.85769 4.89023 8.85769 6.16541C8.85769 7.44662 7.8231 8.4812 6.5419 8.4812ZM23.5103 23.0977H19.5163V16.8421C19.5163 15.3504 19.4863 13.4316 17.4411 13.4316C15.3599 13.4316 15.0411 15.0556 15.0411 16.7338V23.0977H11.0472V10.2376H14.8787V11.994H14.9329C15.4682 10.9835 16.7735 9.9188 18.7163 9.9188C22.7584 9.9188 23.5103 12.5835 23.5103 16.0481V23.0977Z" fill="#F2B749"/>
</svg>
