<svg width="167" height="162" viewBox="0 0 167 162" fill="none" xmlns="http://www.w3.org/2000/svg">
<path d="M12 0C5.37258 0 0 5.37258 0 12V150C0 156.627 5.37258 162 12 162H154.164C160.792 162 166.164 156.627 166.164 150V12C166.164 5.37259 160.792 0 154.164 0H12ZM6.92179 14.9218C6.92179 10.5035 10.5035 6.92179 14.9218 6.92179H151.237C155.656 6.92179 159.237 10.5035 159.237 14.9218V147.073C159.237 151.491 155.656 155.073 151.237 155.073H14.9218C10.5035 155.073 6.92179 151.491 6.92179 147.073V14.9218Z" fill="#31A8FF"/>
<path d="M49.0297 119.848C48.2143 119.848 48 119.493 48 118.808V43.8938C48 43.3241 48.2143 43 48.8415 43H59.8385C60.4082 43 60.5493 43.1882 60.5493 43.8154V108.355H89.2701C89.8137 108.355 90.028 108.58 89.8973 109.207L88.1568 119.09C87.9895 119.66 87.6603 119.932 87.0906 119.932H49.0349L49.0297 119.848ZM101.297 74.6843C101.297 73.8689 101.297 71.8253 100.978 67.9366C100.978 67.393 101.109 67.2258 101.521 67.0376C105.766 65.2971 115.864 62.2134 127.159 62.2134C127.728 62.2134 128 62.3545 128 62.9242V72.9386C128 73.5083 127.786 73.6494 127.159 73.6494C122.773 73.4351 116.303 74.0048 113.846 75.0345V119.028C113.846 119.571 113.658 119.843 113.005 119.843H102.091C101.522 119.843 101.25 119.655 101.25 119.028V74.6791L101.297 74.6843Z" fill="#31A8FF"/>
</svg>
