<svg width="78" height="56" viewBox="0 0 78 56" fill="none" xmlns="http://www.w3.org/2000/svg">
<path fill-rule="evenodd" clip-rule="evenodd" d="M67 0C72.7992 0 77.5 4.70103 77.5 10.5V45.5C77.5 51.2992 72.7992 56 67 56H11C5.20103 56 0.5 51.2992 0.5 45.5V10.5C0.5 4.70103 5.20103 0 11 0H67ZM64.3852 7H13.6151L36.8314 25.3285C38.103 26.3326 39.8971 26.3326 41.169 25.3285L64.3852 7ZM7.5 11.0908V45.5C7.5 47.433 9.06702 49 11 49H67C68.9331 49 70.5 47.433 70.5 45.5V11.0909L45.5062 30.8228C41.6915 33.8345 36.3085 33.8345 32.4939 30.8228L7.5 11.0908Z" fill="#F2B749"/>
</svg>
