<svg width="175" height="175" viewBox="0 0 175 175" fill="none" xmlns="http://www.w3.org/2000/svg">
<path d="M169.882 170.157L169.881 170.158C168.421 171.173 166.709 171.704 164.972 171.704C163.984 171.704 162.996 171.533 162.054 171.191C162.054 171.191 162.054 171.19 162.054 171.19L111.268 152.756L58.635 173.771C58.6349 173.771 58.6348 173.771 58.6347 173.771C58.2528 173.924 57.8458 174 57.4494 174C57.0516 174 56.6533 173.923 56.273 173.78L56.264 173.776L5.88427 153.659L5.88344 153.658C2.61371 152.346 0.5 149.222 0.5 145.705V12.0925C0.5 9.24394 1.90476 6.59427 4.26794 4.99589C6.62522 3.39787 9.61712 3.07735 12.245 4.13953C12.2454 4.13968 12.2458 4.13982 12.2461 4.13997L57.4547 22.1881L110.017 1.19621C110.141 1.14326 110.254 1.1392 110.296 1.13771L110.3 1.13757L110.313 1.13712C110.63 1.04431 110.965 0.989158 111.325 1.00179L111.325 1.0018C111.523 1.00887 111.695 1.04445 111.846 1.07674M169.882 170.157L111.743 1.566M169.882 170.157C172.166 168.558 173.536 165.938 173.536 163.14V29.3875C173.536 25.8012 171.27 22.5649 167.895 21.3425M169.882 170.157L112.306 1.15697M111.846 1.07674C111.847 1.07686 111.847 1.07698 111.848 1.0771L111.743 1.566M111.846 1.07674C111.846 1.07666 111.845 1.07659 111.845 1.07651L111.743 1.566M111.846 1.07674C111.863 1.08022 111.876 1.08125 111.914 1.08411C111.93 1.08535 111.95 1.08694 111.978 1.08923C112.052 1.09541 112.172 1.10743 112.303 1.15589L112.301 1.15516L112.13 1.62513M111.743 1.566C111.795 1.57675 111.846 1.58062 111.898 1.58449C111.975 1.5903 112.053 1.5961 112.13 1.62513M112.13 1.62513L112.306 1.15697M112.13 1.62513L112.306 1.15697M112.306 1.15697L167.895 21.3424M167.895 21.3424L167.725 21.8125L167.895 21.3425M167.895 21.3424L167.895 21.3425M167.895 21.3424L167.895 21.3425M166.227 164.93L166.225 164.932C165.637 165.35 164.916 165.444 164.228 165.197C164.227 165.197 164.227 165.196 164.227 165.196L114.399 147.113V8.69857L165.712 27.3295C165.713 27.3297 165.713 27.3299 165.713 27.33C166.58 27.6516 167.16 28.4777 167.16 29.3875V163.14C167.16 163.863 166.821 164.512 166.227 164.93ZM7.8376 10.2819L7.83963 10.2805C8.45811 9.8608 9.1898 9.7771 9.87289 10.0599L9.87288 10.0599L9.87878 10.0623L54.2613 27.7801V166.112L8.25864 147.742C8.25791 147.742 8.25717 147.742 8.25643 147.742C7.41655 147.398 6.87613 146.596 6.87613 145.7V12.0925C6.87613 11.3492 7.22427 10.6937 7.8376 10.2819ZM108.023 8.85756V147.184L60.6374 166.106V27.78L108.023 8.85756Z" fill="#2F5946" stroke="#2F5946"/>
</svg>
