<svg width="197" height="197" viewBox="0 0 197 197" fill="none" xmlns="http://www.w3.org/2000/svg">
<path d="M180.583 57.4583V49.25C180.583 33.7722 180.583 26.0333 175.775 21.225C170.966 16.4167 163.228 16.4167 147.75 16.4167H131.333C115.856 16.4167 108.117 16.4167 103.308 21.225C98.5 26.0333 98.5 33.7722 98.5 49.25V147.75C98.5 163.228 98.5 170.966 103.308 175.775C108.117 180.583 115.856 180.583 131.333 180.583H147.75C163.228 180.583 170.966 180.583 175.775 175.775C180.583 170.966 180.583 163.228 180.583 147.75V90.2917" stroke="#1A1A2E" stroke-width="8" stroke-linecap="round"/>
<path d="M98.5 98.5H114.917M98.5 49.25H114.917M98.5 147.75H114.917M98.5 123.125H123.125M98.5 73.875H123.125" stroke="#1A1A2E" stroke-width="8" stroke-linecap="round"/>
<path d="M16.4166 49.25V41.0417C16.4166 27.4417 27.4416 16.4167 41.0416 16.4167C54.6416 16.4167 65.6666 27.4417 65.6666 41.0417V49.25M16.4166 49.25C16.4166 49.25 25.651 57.4583 41.0416 57.4583C56.4322 57.4583 65.6666 49.25 65.6666 49.25M16.4166 49.25V86.5667M65.6666 49.25V124.713C65.6666 129.824 65.6666 132.38 65.3566 134.888C64.9909 137.846 64.304 140.756 63.3081 143.565C62.4638 145.947 61.3209 148.233 59.0351 152.805L49.349 172.177M49.349 172.177L46.9813 176.913C45.8564 179.162 43.5569 180.583 41.0416 180.583C38.5263 180.583 36.2269 179.162 35.102 176.913L32.7343 172.177M49.349 172.177H32.7343M32.7343 172.177L23.0481 152.805C20.7624 148.233 19.6194 145.947 18.7751 143.565C17.7792 140.756 17.0923 137.846 16.7267 134.888C16.4166 132.38 16.4166 129.825 16.4166 124.713V117.563" stroke="#1A1A2E" stroke-width="8" stroke-linecap="round"/>
</svg>
