<svg width="167" height="162" viewBox="0 0 167 162" fill="none" xmlns="http://www.w3.org/2000/svg">
<path d="M12 0C5.37258 0 0 5.37258 0 12V150C0 156.627 5.37258 162 12 162H154.164C160.792 162 166.164 156.627 166.164 150V12C166.164 5.37259 160.792 0 154.164 0H12ZM6.92179 14.9218C6.92179 10.5035 10.5035 6.92179 14.9218 6.92179H151.237C155.656 6.92179 159.237 10.5035 159.237 14.9218V147.073C159.237 151.491 155.656 155.073 151.237 155.073H14.9218C10.5035 155.073 6.92179 151.491 6.92179 147.073V14.9218ZM40.1599 37.9426C40.1599 37.4805 41.1361 37.1326 41.7021 37.1326C46.1626 36.9145 52.7105 36.7795 59.5544 36.7795C78.7568 36.7795 86.2186 47.2998 86.2186 60.7695C86.2186 78.3777 73.4551 85.9226 57.82 85.9226C55.1718 85.9226 54.2787 85.7876 52.4405 85.7876V112.4C52.4405 112.966 52.2224 113.21 51.6564 113.21H40.944C40.378 113.21 40.1599 112.992 40.1599 112.426V37.9426ZM52.4405 74.7273C54.0346 74.8363 55.3068 74.8363 58.0641 74.8363C66.149 74.8363 73.777 71.97 73.777 61.0187C73.777 52.2276 68.3144 47.7671 59.0663 47.7671C56.3349 47.7671 53.7127 47.8761 52.4405 47.9852V74.7273ZM112.047 66.4762C106.558 66.4762 104.72 69.2335 104.72 71.5079C104.72 74.0211 105.966 75.7295 113.293 79.5149C124.14 84.7906 127.573 89.7911 127.573 97.227C127.573 108.287 119.109 114.238 107.695 114.238C101.636 114.238 96.4741 112.966 93.4987 111.263C93.0677 111.045 92.9586 110.697 92.9586 110.126V99.9583C92.9586 99.2833 93.2858 99.0392 93.7427 99.3923C98.0682 102.259 103.1 103.505 107.669 103.505C113.158 103.505 115.432 101.231 115.432 98.1253C115.432 95.6121 113.838 93.4468 106.885 89.7963C97.0401 85.0918 92.9275 80.3042 92.9275 72.2971C92.9275 63.371 99.9064 55.9611 111.995 55.9611C117.946 55.9611 122.136 56.8802 124.436 57.8824C125.002 58.2355 125.111 58.8015 125.111 59.2636V68.7558C125.111 69.3218 124.758 69.6748 124.083 69.4308C120.999 67.6186 116.455 66.4554 112.021 66.4554L112.047 66.4762Z" fill="#00C6FD"/>
</svg>
