<svg width="604" height="496" viewBox="0 0 604 496" fill="none" xmlns="http://www.w3.org/2000/svg">
<g clip-path="url(#clip0_314_58)">
<mask id="mask0_314_58" style="mask-type:luminance" maskUnits="userSpaceOnUse" x="-33" y="294" width="42" height="23">
<path d="M-32.0063 316.922L-32.0063 294.908L8.29157 294.908L8.29157 316.922L-32.0063 316.922Z" fill="white"/>
</mask>
<g mask="url(#mask0_314_58)">
<mask id="mask1_314_58" style="mask-type:luminance" maskUnits="userSpaceOnUse" x="-105" y="57" width="670" height="386">
<path d="M-101.214 57.2615L564.996 62.7478L561.902 442.474L-104.307 436.987L-101.214 57.2615Z" fill="white"/>
</mask>
<g mask="url(#mask1_314_58)">
<mask id="mask2_314_58" style="mask-type:luminance" maskUnits="userSpaceOnUse" x="-105" y="57" width="670" height="386">
<path d="M-101.214 57.2615L564.996 62.7478L561.902 442.474L-104.307 436.987L-101.214 57.2615Z" fill="white"/>
</mask>
<g mask="url(#mask2_314_58)">
<mask id="mask3_314_58" style="mask-type:luminance" maskUnits="userSpaceOnUse" x="-105" y="57" width="670" height="386">
<path d="M-101.214 57.2615L564.996 62.7478L561.902 442.474L-104.307 436.987L-101.214 57.2615Z" fill="white"/>
</mask>
<g mask="url(#mask3_314_58)">
<path d="M6.48481 310.383C-4.41096 305.368 -15.3102 300.353 -26.2059 295.338C-30.1105 293.553 -33.5736 299.325 -29.6416 301.141C-18.7459 306.156 -7.85011 311.157 3.04908 316.172C6.95363 317.971 10.4236 312.186 6.48481 310.383Z" fill="#5838A1" fill-opacity="0.3"/>
</g>
</g>
</g>
</g>
<mask id="mask4_314_58" style="mask-type:luminance" maskUnits="userSpaceOnUse" x="-37" y="280" width="41" height="24">
<path d="M-36.3862 303.714L-36.3862 280.819L3.91168 280.819L3.91169 303.714L-36.3862 303.714Z" fill="white"/>
</mask>
<g mask="url(#mask4_314_58)">
<mask id="mask5_314_58" style="mask-type:luminance" maskUnits="userSpaceOnUse" x="-105" y="57" width="670" height="386">
<path d="M-101.213 57.2615L564.996 62.7478L561.903 442.474L-104.307 436.987L-101.213 57.2615Z" fill="white"/>
</mask>
<g mask="url(#mask5_314_58)">
<mask id="mask6_314_58" style="mask-type:luminance" maskUnits="userSpaceOnUse" x="-105" y="57" width="670" height="386">
<path d="M-101.213 57.2615L564.996 62.7478L561.903 442.474L-104.307 436.987L-101.213 57.2615Z" fill="white"/>
</mask>
<g mask="url(#mask6_314_58)">
<mask id="mask7_314_58" style="mask-type:luminance" maskUnits="userSpaceOnUse" x="-105" y="57" width="670" height="386">
<path d="M-101.213 57.2615L564.996 62.7478L561.903 442.474L-104.307 436.987L-101.213 57.2615Z" fill="white"/>
</mask>
<g mask="url(#mask7_314_58)">
<path d="M2.15961 297.041C-8.743 292.026 -19.6388 287.011 -30.5345 281.996C-34.4357 280.197 -37.9056 285.982 -33.9737 287.799C-23.0779 292.814 -12.1787 297.815 -1.28296 302.83C2.62159 304.629 6.09153 298.843 2.15961 297.041Z" fill="#5838A1" fill-opacity="0.3"/>
</g>
</g>
</g>
</g>
<mask id="mask8_314_58" style="mask-type:luminance" maskUnits="userSpaceOnUse" x="46" y="232" width="40" height="55">
<path d="M46.8374 286.103L46.8374 232.389L85.3832 232.389L85.3832 286.103L46.8374 286.103Z" fill="white"/>
</mask>
<g mask="url(#mask8_314_58)">
<mask id="mask9_314_58" style="mask-type:luminance" maskUnits="userSpaceOnUse" x="-105" y="57" width="670" height="386">
<path d="M-101.214 57.2615L564.996 62.7478L561.902 442.474L-104.307 436.987L-101.214 57.2615Z" fill="white"/>
</mask>
<g mask="url(#mask9_314_58)">
<mask id="mask10_314_58" style="mask-type:luminance" maskUnits="userSpaceOnUse" x="-105" y="57" width="670" height="386">
<path d="M-101.214 57.2615L564.996 62.7478L561.902 442.474L-104.307 436.987L-101.214 57.2615Z" fill="white"/>
</mask>
<g mask="url(#mask10_314_58)">
<mask id="mask11_314_58" style="mask-type:luminance" maskUnits="userSpaceOnUse" x="-105" y="57" width="670" height="386">
<path d="M-101.214 57.2615L564.996 62.7478L561.902 442.474L-104.307 436.987L-101.214 57.2615Z" fill="white"/>
</mask>
<g mask="url(#mask11_314_58)">
<path d="M48.4525 250.179C52.7882 258.568 57.1137 266.968 61.4528 275.343C63.9817 280.238 66.1581 284.913 72.0646 285.81C81.9132 287.32 87.8265 277.356 84.2812 268.946C80.6539 260.336 75.5619 252.074 71.2638 243.781C68.752 238.886 66.5722 234.215 60.6692 233.3C50.8171 231.804 44.9039 241.755 48.4525 250.179C50.1396 254.186 55.9434 250.781 54.2837 246.825C52.819 243.372 55.016 240.919 58.1814 240.001C62.3152 238.78 64.0707 244.462 65.4464 247.135C69.7855 255.521 74.1246 263.91 78.4467 272.299C80.1953 275.66 77.5125 278.257 74.549 279.124C70.4152 280.331 68.6596 274.662 67.284 271.993C62.9483 263.604 58.6091 255.215 54.2837 246.825C52.2852 242.962 46.454 246.316 48.4525 250.179Z" fill="#A0E7E5" fill-opacity="0.5"/>
</g>
</g>
</g>
</g>
<mask id="mask12_314_58" style="mask-type:luminance" maskUnits="userSpaceOnUse" x="68" y="58" width="21" height="20">
<path d="M68.7388 77.4112L68.7388 58.039L88.0117 58.039L88.0117 77.4112L68.7388 77.4112Z" fill="white"/>
</mask>
<g mask="url(#mask12_314_58)">
<mask id="mask13_314_58" style="mask-type:luminance" maskUnits="userSpaceOnUse" x="-105" y="57" width="670" height="386">
<path d="M-101.213 57.2615L564.996 62.7477L561.903 442.474L-104.307 436.987L-101.213 57.2615Z" fill="white"/>
</mask>
<g mask="url(#mask13_314_58)">
<mask id="mask14_314_58" style="mask-type:luminance" maskUnits="userSpaceOnUse" x="-105" y="57" width="670" height="386">
<path d="M-101.213 57.2615L564.996 62.7477L561.903 442.474L-104.307 436.987L-101.213 57.2615Z" fill="white"/>
</mask>
<g mask="url(#mask14_314_58)">
<mask id="mask15_314_58" style="mask-type:luminance" maskUnits="userSpaceOnUse" x="-105" y="57" width="670" height="386">
<path d="M-101.213 57.2615L564.996 62.7477L561.903 442.474L-104.307 436.987L-101.213 57.2615Z" fill="white"/>
</mask>
<g mask="url(#mask15_314_58)">
<path d="M87.3311 67.8351C87.29 72.7779 83.252 76.7542 78.338 76.7129C73.4205 76.6716 69.4612 72.6334 69.5023 67.6872C69.5433 62.7478 73.5642 58.7716 78.4817 58.8128C83.3992 58.8507 87.3722 62.8957 87.3311 67.8351Z" fill="#A0E7E5" fill-opacity="0.5"/>
</g>
</g>
</g>
</g>
<mask id="mask16_314_58" style="mask-type:luminance" maskUnits="userSpaceOnUse" x="22" y="117" width="34" height="33">
<path d="M22.3081 149.617L22.3081 117.036L55.5977 117.036L55.5977 149.617L22.3081 149.617Z" fill="white"/>
</mask>
<g mask="url(#mask16_314_58)">
<mask id="mask17_314_58" style="mask-type:luminance" maskUnits="userSpaceOnUse" x="-105" y="57" width="670" height="386">
<path d="M-101.214 57.2616L564.996 62.7478L561.902 442.474L-104.307 436.987L-101.214 57.2616Z" fill="white"/>
</mask>
<g mask="url(#mask17_314_58)">
<mask id="mask18_314_58" style="mask-type:luminance" maskUnits="userSpaceOnUse" x="-105" y="57" width="670" height="386">
<path d="M-101.214 57.2616L564.996 62.7478L561.902 442.474L-104.307 436.987L-101.214 57.2616Z" fill="white"/>
</mask>
<g mask="url(#mask18_314_58)">
<mask id="mask19_314_58" style="mask-type:luminance" maskUnits="userSpaceOnUse" x="-105" y="57" width="670" height="386">
<path d="M-101.214 57.2616L564.996 62.7478L561.902 442.474L-104.307 436.987L-101.214 57.2616Z" fill="white"/>
</mask>
<g mask="url(#mask19_314_58)">
<path d="M49.0309 118.237C40.4964 126.695 31.9687 135.153 23.4375 143.614C20.3543 146.672 25.063 151.481 28.1497 148.423C36.6808 139.965 45.212 131.503 53.7328 123.052C56.8229 119.987 52.1176 115.179 49.0309 118.237Z" fill="#A0E7E5" fill-opacity="0.5"/>
</g>
</g>
</g>
</g>
<mask id="mask20_314_58" style="mask-type:luminance" maskUnits="userSpaceOnUse" x="8" y="116" width="34" height="34">
<path d="M8.2915 149.617L8.2915 116.156L41.5811 116.156L41.5811 149.617L8.2915 149.617Z" fill="white"/>
</mask>
<g mask="url(#mask20_314_58)">
<mask id="mask21_314_58" style="mask-type:luminance" maskUnits="userSpaceOnUse" x="-105" y="57" width="670" height="386">
<path d="M-101.214 57.2616L564.996 62.7478L561.902 442.474L-104.307 436.987L-101.214 57.2616Z" fill="white"/>
</mask>
<g mask="url(#mask21_314_58)">
<mask id="mask22_314_58" style="mask-type:luminance" maskUnits="userSpaceOnUse" x="-105" y="57" width="670" height="386">
<path d="M-101.214 57.2616L564.996 62.7478L561.902 442.474L-104.307 436.987L-101.214 57.2616Z" fill="white"/>
</mask>
<g mask="url(#mask22_314_58)">
<mask id="mask23_314_58" style="mask-type:luminance" maskUnits="userSpaceOnUse" x="-105" y="57" width="670" height="386">
<path d="M-101.214 57.2616L564.996 62.7478L561.902 442.474L-104.307 436.987L-101.214 57.2616Z" fill="white"/>
</mask>
<g mask="url(#mask23_314_58)">
<path d="M35.0759 117.576C26.5413 126.031 18.0102 134.492 9.48249 142.951C6.39924 146.009 11.108 150.817 14.1912 147.759C22.7224 139.301 31.2501 130.843 39.7778 122.388C42.8679 119.324 38.1489 114.515 35.0759 117.576Z" fill="#A0E7E5" fill-opacity="0.5"/>
</g>
</g>
</g>
</g>
<mask id="mask24_314_58" style="mask-type:luminance" maskUnits="userSpaceOnUse" x="22" y="131" width="34" height="33">
<path d="M22.3081 163.706L22.3081 131.125L55.5977 131.125L55.5977 163.706L22.3081 163.706Z" fill="white"/>
</mask>
<g mask="url(#mask24_314_58)">
<mask id="mask25_314_58" style="mask-type:luminance" maskUnits="userSpaceOnUse" x="-105" y="57" width="670" height="386">
<path d="M-101.214 57.2616L564.996 62.7478L561.902 442.474L-104.307 436.987L-101.214 57.2616Z" fill="white"/>
</mask>
<g mask="url(#mask25_314_58)">
<mask id="mask26_314_58" style="mask-type:luminance" maskUnits="userSpaceOnUse" x="-105" y="57" width="670" height="386">
<path d="M-101.214 57.2616L564.996 62.7478L561.902 442.474L-104.307 436.987L-101.214 57.2616Z" fill="white"/>
</mask>
<g mask="url(#mask26_314_58)">
<mask id="mask27_314_58" style="mask-type:luminance" maskUnits="userSpaceOnUse" x="-105" y="57" width="670" height="386">
<path d="M-101.214 57.2616L564.996 62.7478L561.902 442.474L-104.307 436.987L-101.214 57.2616Z" fill="white"/>
</mask>
<g mask="url(#mask27_314_58)">
<path d="M49.5203 132.274C40.9857 140.732 32.4648 149.19 23.9268 157.648C20.8436 160.706 25.5523 165.518 28.6356 162.457C37.1701 153.999 45.7047 145.541 54.2358 137.083C57.3122 134.025 52.6069 129.216 49.5203 132.274Z" fill="#A0E7E5" fill-opacity="0.5"/>
</g>
</g>
</g>
</g>
<mask id="mask28_314_58" style="mask-type:luminance" maskUnits="userSpaceOnUse" x="47" y="368" width="20" height="20">
<path d="M47.7134 387.367L47.7134 368.875L66.1103 368.875L66.1103 387.367L47.7134 387.367Z" fill="white"/>
</mask>
<g mask="url(#mask28_314_58)">
<mask id="mask29_314_58" style="mask-type:luminance" maskUnits="userSpaceOnUse" x="-105" y="57" width="670" height="386">
<path d="M-101.214 57.2615L564.996 62.7478L561.902 442.474L-104.307 436.987L-101.214 57.2615Z" fill="white"/>
</mask>
<g mask="url(#mask29_314_58)">
<mask id="mask30_314_58" style="mask-type:luminance" maskUnits="userSpaceOnUse" x="-105" y="57" width="670" height="386">
<path d="M-101.214 57.2615L564.996 62.7478L561.902 442.474L-104.307 436.987L-101.214 57.2615Z" fill="white"/>
</mask>
<g mask="url(#mask30_314_58)">
<mask id="mask31_314_58" style="mask-type:luminance" maskUnits="userSpaceOnUse" x="-105" y="57" width="670" height="386">
<path d="M-101.214 57.2615L564.996 62.7478L561.902 442.474L-104.307 436.987L-101.214 57.2615Z" fill="white"/>
</mask>
<g mask="url(#mask31_314_58)">
<path d="M65.6279 378.293C65.5869 383.229 61.5626 387.205 56.6451 387.164C51.7139 387.122 47.7718 383.084 47.8128 378.145C47.8505 373.192 51.8611 369.219 56.7922 369.257C61.7097 369.298 65.6656 373.34 65.6279 378.293Z" fill="#A0E7E5" fill-opacity="0.7"/>
</g>
</g>
</g>
</g>
<mask id="mask32_314_58" style="mask-type:luminance" maskUnits="userSpaceOnUse" x="182" y="245" width="73" height="56">
<path d="M182.624 300.192L182.624 245.597L254.459 245.597L254.459 300.192L182.624 300.192Z" fill="white"/>
</mask>
<g mask="url(#mask32_314_58)">
<mask id="mask33_314_58" style="mask-type:luminance" maskUnits="userSpaceOnUse" x="-105" y="57" width="670" height="386">
<path d="M-101.214 57.2615L564.996 62.7478L561.902 442.474L-104.307 436.987L-101.214 57.2615Z" fill="white"/>
</mask>
<g mask="url(#mask33_314_58)">
<mask id="mask34_314_58" style="mask-type:luminance" maskUnits="userSpaceOnUse" x="-105" y="57" width="670" height="386">
<path d="M-101.214 57.2615L564.996 62.7478L561.902 442.474L-104.307 436.987L-101.214 57.2615Z" fill="white"/>
</mask>
<g mask="url(#mask34_314_58)">
<mask id="mask35_314_58" style="mask-type:luminance" maskUnits="userSpaceOnUse" x="-105" y="57" width="670" height="386">
<path d="M-101.214 57.2615L564.996 62.7478L561.902 442.474L-104.307 436.987L-101.214 57.2615Z" fill="white"/>
</mask>
<g mask="url(#mask35_314_58)">
<path d="M183.955 277.81C192.514 295.978 213.45 304.302 232.011 296.666C250.86 288.941 259.141 266.61 251.595 248.06C250.712 245.907 248.837 245.054 246.681 246.007C226.183 255.084 205.699 264.144 185.204 273.207C181.238 274.955 184.619 280.799 188.541 279.062C209.039 270.002 229.523 260.928 250.018 251.864C248.385 251.176 246.739 250.488 245.104 249.801C251.349 265.155 245.771 281.748 231.142 289.683C215.596 298.138 196.949 289.659 189.79 274.46C187.939 270.518 182.107 273.895 183.955 277.81Z" fill="#5838A1" fill-opacity="0.3"/>
</g>
</g>
</g>
</g>
<mask id="mask36_314_58" style="mask-type:luminance" maskUnits="userSpaceOnUse" x="149" y="186" width="44" height="13">
<path d="M149.334 198.047L149.334 186.6L192.261 186.6L192.261 198.047L149.334 198.047Z" fill="white"/>
</mask>
<g mask="url(#mask36_314_58)">
<mask id="mask37_314_58" style="mask-type:luminance" maskUnits="userSpaceOnUse" x="-105" y="57" width="670" height="386">
<path d="M-101.214 57.2616L564.996 62.7478L561.902 442.474L-104.307 436.987L-101.214 57.2616Z" fill="white"/>
</mask>
<g mask="url(#mask37_314_58)">
<mask id="mask38_314_58" style="mask-type:luminance" maskUnits="userSpaceOnUse" x="-105" y="57" width="670" height="386">
<path d="M-101.214 57.2616L564.996 62.7478L561.902 442.474L-104.307 436.987L-101.214 57.2616Z" fill="white"/>
</mask>
<g mask="url(#mask38_314_58)">
<mask id="mask39_314_58" style="mask-type:luminance" maskUnits="userSpaceOnUse" x="-105" y="57" width="670" height="386">
<path d="M-101.214 57.2616L564.996 62.7478L561.902 442.474L-104.307 436.987L-101.214 57.2616Z" fill="white"/>
</mask>
<g mask="url(#mask39_314_58)">
<path d="M153.263 197.913C165.164 196.472 177.066 195.031 188.968 193.589C193.205 193.077 193.314 186.318 189.023 186.841C177.121 188.282 165.219 189.723 153.317 191.161C149.081 191.674 148.971 198.429 153.263 197.913Z" fill="#5838A1" fill-opacity="0.3"/>
</g>
</g>
</g>
</g>
<mask id="mask40_314_58" style="mask-type:luminance" maskUnits="userSpaceOnUse" x="160" y="195" width="44" height="13">
<path d="M160.723 207.733L160.723 195.406L203.649 195.406L203.649 207.733L160.723 207.733Z" fill="white"/>
</mask>
<g mask="url(#mask40_314_58)">
<mask id="mask41_314_58" style="mask-type:luminance" maskUnits="userSpaceOnUse" x="-105" y="57" width="670" height="386">
<path d="M-101.213 57.2616L564.996 62.7478L561.903 442.474L-104.307 436.987L-101.213 57.2616Z" fill="white"/>
</mask>
<g mask="url(#mask41_314_58)">
<mask id="mask42_314_58" style="mask-type:luminance" maskUnits="userSpaceOnUse" x="-105" y="57" width="670" height="386">
<path d="M-101.213 57.2616L564.996 62.7478L561.903 442.474L-104.307 436.987L-101.213 57.2616Z" fill="white"/>
</mask>
<g mask="url(#mask42_314_58)">
<mask id="mask43_314_58" style="mask-type:luminance" maskUnits="userSpaceOnUse" x="-105" y="57" width="670" height="386">
<path d="M-101.213 57.2616L564.996 62.7478L561.903 442.474L-104.307 436.987L-101.213 57.2616Z" fill="white"/>
</mask>
<g mask="url(#mask43_314_58)">
<path d="M163.896 207.014C175.797 205.573 187.689 204.132 199.591 202.691C203.827 202.189 203.937 195.426 199.646 195.946C187.744 197.387 175.856 198.825 163.95 200.266C159.714 200.785 159.608 207.53 163.896 207.014Z" fill="#5838A1" fill-opacity="0.3"/>
</g>
</g>
</g>
</g>
<mask id="mask44_314_58" style="mask-type:luminance" maskUnits="userSpaceOnUse" x="158" y="175" width="44" height="12">
<path d="M158.095 186.6L158.095 175.153L201.021 175.153L201.021 186.6L158.095 186.6Z" fill="white"/>
</mask>
<g mask="url(#mask44_314_58)">
<mask id="mask45_314_58" style="mask-type:luminance" maskUnits="userSpaceOnUse" x="-105" y="57" width="670" height="386">
<path d="M-101.214 57.2615L564.996 62.7478L561.902 442.474L-104.307 436.987L-101.214 57.2615Z" fill="white"/>
</mask>
<g mask="url(#mask45_314_58)">
<mask id="mask46_314_58" style="mask-type:luminance" maskUnits="userSpaceOnUse" x="-105" y="57" width="670" height="386">
<path d="M-101.214 57.2615L564.996 62.7478L561.902 442.474L-104.307 436.987L-101.214 57.2615Z" fill="white"/>
</mask>
<g mask="url(#mask46_314_58)">
<mask id="mask47_314_58" style="mask-type:luminance" maskUnits="userSpaceOnUse" x="-105" y="57" width="670" height="386">
<path d="M-101.214 57.2615L564.996 62.7478L561.902 442.474L-104.307 436.987L-101.214 57.2615Z" fill="white"/>
</mask>
<g mask="url(#mask47_314_58)">
<path d="M161.431 186.511C173.333 185.069 185.235 183.628 197.137 182.187C201.373 181.678 201.483 174.919 197.191 175.438C185.29 176.88 173.388 178.321 161.486 179.762C157.249 180.274 157.14 187.027 161.431 186.511Z" fill="#5838A1" fill-opacity="0.3"/>
</g>
</g>
</g>
</g>
<mask id="mask48_314_58" style="mask-type:luminance" maskUnits="userSpaceOnUse" x="376" y="73" width="75" height="46">
<path d="M376.229 118.797L376.229 73.0083L450.693 73.0083L450.693 118.797L376.229 118.797Z" fill="white"/>
</mask>
<g mask="url(#mask48_314_58)">
<mask id="mask49_314_58" style="mask-type:luminance" maskUnits="userSpaceOnUse" x="-105" y="57" width="670" height="386">
<path d="M-101.214 57.2615L564.996 62.7478L561.902 442.474L-104.307 436.987L-101.214 57.2615Z" fill="white"/>
</mask>
<g mask="url(#mask49_314_58)">
<mask id="mask50_314_58" style="mask-type:luminance" maskUnits="userSpaceOnUse" x="-105" y="57" width="670" height="386">
<path d="M-101.214 57.2615L564.996 62.7478L561.902 442.474L-104.307 436.987L-101.214 57.2615Z" fill="white"/>
</mask>
<g mask="url(#mask50_314_58)">
<mask id="mask51_314_58" style="mask-type:luminance" maskUnits="userSpaceOnUse" x="-105" y="57" width="670" height="386">
<path d="M-101.214 57.2615L564.996 62.7478L561.902 442.474L-104.307 436.987L-101.214 57.2615Z" fill="white"/>
</mask>
<g mask="url(#mask51_314_58)">
<path d="M449.834 103.983C446.011 83.5543 427.505 70.9204 407.26 73.5793C386.748 76.2726 374.463 96.8624 376.992 116.331C377.245 118.281 379.497 118.976 381.109 118.718C403.229 115.186 425.332 111.65 447.448 108.11C451.726 107.429 449.953 100.914 445.717 101.592C423.597 105.131 401.494 108.667 379.377 112.2C380.739 112.998 382.118 113.792 383.48 114.59C381.294 97.7051 392.617 83.1932 408.995 80.0975C425.653 76.9571 440.396 89.9728 443.345 105.72C444.143 109.999 450.621 108.237 449.834 103.983Z" fill="#5838A1" fill-opacity="0.3"/>
</g>
</g>
</g>
</g>
<mask id="mask52_314_58" style="mask-type:luminance" maskUnits="userSpaceOnUse" x="445" y="298" width="42" height="24">
<path d="M445.437 321.325L445.437 298.431L486.61 298.431L486.61 321.325L445.437 321.325Z" fill="white"/>
</mask>
<g mask="url(#mask52_314_58)">
<mask id="mask53_314_58" style="mask-type:luminance" maskUnits="userSpaceOnUse" x="-105" y="57" width="670" height="386">
<path d="M-101.213 57.2615L564.996 62.7478L561.903 442.474L-104.307 436.987L-101.213 57.2615Z" fill="white"/>
</mask>
<g mask="url(#mask53_314_58)">
<mask id="mask54_314_58" style="mask-type:luminance" maskUnits="userSpaceOnUse" x="-105" y="57" width="670" height="386">
<path d="M-101.213 57.2615L564.996 62.7478L561.903 442.474L-104.307 436.987L-101.213 57.2615Z" fill="white"/>
</mask>
<g mask="url(#mask54_314_58)">
<mask id="mask55_314_58" style="mask-type:luminance" maskUnits="userSpaceOnUse" x="-105" y="57" width="670" height="386">
<path d="M-101.213 57.2615L564.996 62.7478L561.903 442.474L-104.307 436.987L-101.213 57.2615Z" fill="white"/>
</mask>
<g mask="url(#mask55_314_58)">
<path d="M484.089 314.315C473.179 309.3 462.283 304.285 451.388 299.27C447.493 297.485 444.02 303.256 447.955 305.073C458.851 310.088 469.747 315.089 480.643 320.104C484.551 321.903 488.01 316.117 484.089 314.315Z" fill="#5838A1" fill-opacity="0.3"/>
</g>
</g>
</g>
</g>
<mask id="mask56_314_58" style="mask-type:luminance" maskUnits="userSpaceOnUse" x="441" y="285" width="42" height="23">
<path d="M441.056 307.236L441.056 285.222L482.23 285.222L482.23 307.236L441.056 307.236Z" fill="white"/>
</mask>
<g mask="url(#mask56_314_58)">
<mask id="mask57_314_58" style="mask-type:luminance" maskUnits="userSpaceOnUse" x="-105" y="57" width="670" height="386">
<path d="M-101.214 57.2615L564.996 62.7478L561.902 442.474L-104.307 436.987L-101.214 57.2615Z" fill="white"/>
</mask>
<g mask="url(#mask57_314_58)">
<mask id="mask58_314_58" style="mask-type:luminance" maskUnits="userSpaceOnUse" x="-105" y="57" width="670" height="386">
<path d="M-101.214 57.2615L564.996 62.7478L561.902 442.474L-104.307 436.987L-101.214 57.2615Z" fill="white"/>
</mask>
<g mask="url(#mask58_314_58)">
<mask id="mask59_314_58" style="mask-type:luminance" maskUnits="userSpaceOnUse" x="-105" y="57" width="670" height="386">
<path d="M-101.214 57.2615L564.996 62.7478L561.902 442.474L-104.307 436.987L-101.214 57.2615Z" fill="white"/>
</mask>
<g mask="url(#mask59_314_58)">
<path d="M479.749 300.976L447.062 285.927C443.154 284.128 439.681 289.917 443.63 291.73C454.512 296.745 465.421 301.746 476.317 306.761C480.211 308.564 483.685 302.775 479.749 300.976Z" fill="#5838A1" fill-opacity="0.3"/>
</g>
</g>
</g>
</g>
<mask id="mask60_314_58" style="mask-type:luminance" maskUnits="userSpaceOnUse" x="433" y="303" width="41" height="24">
<path d="M433.172 326.608L433.172 303.714L473.47 303.714L473.47 326.608L433.172 326.608Z" fill="white"/>
</mask>
<g mask="url(#mask60_314_58)">
<mask id="mask61_314_58" style="mask-type:luminance" maskUnits="userSpaceOnUse" x="-105" y="57" width="670" height="386">
<path d="M-101.214 57.2615L564.996 62.7478L561.902 442.474L-104.307 436.987L-101.214 57.2615Z" fill="white"/>
</mask>
<g mask="url(#mask61_314_58)">
<mask id="mask62_314_58" style="mask-type:luminance" maskUnits="userSpaceOnUse" x="-105" y="57" width="670" height="386">
<path d="M-101.214 57.2615L564.996 62.7478L561.902 442.474L-104.307 436.987L-101.214 57.2615Z" fill="white"/>
</mask>
<g mask="url(#mask62_314_58)">
<mask id="mask63_314_58" style="mask-type:luminance" maskUnits="userSpaceOnUse" x="-105" y="57" width="670" height="386">
<path d="M-101.214 57.2615L564.996 62.7478L561.902 442.474L-104.307 436.987L-101.214 57.2615Z" fill="white"/>
</mask>
<g mask="url(#mask63_314_58)">
<path d="M471.187 319.743C460.291 314.741 449.396 309.726 438.496 304.711C434.588 302.909 431.129 308.698 435.05 310.511C445.946 315.512 456.856 320.53 467.751 325.545C471.649 327.344 475.122 321.555 471.187 319.743Z" fill="#5838A1" fill-opacity="0.3"/>
</g>
</g>
</g>
</g>
<mask id="mask64_314_58" style="mask-type:luminance" maskUnits="userSpaceOnUse" x="372" y="392" width="58" height="50">
<path d="M372.725 441.961L372.725 392.65L429.668 392.65L429.668 441.961L372.725 441.961Z" fill="white"/>
</mask>
<g mask="url(#mask64_314_58)">
<mask id="mask65_314_58" style="mask-type:luminance" maskUnits="userSpaceOnUse" x="-105" y="57" width="670" height="386">
<path d="M-101.214 57.2615L564.996 62.7478L561.902 442.474L-104.307 436.987L-101.214 57.2615Z" fill="white"/>
</mask>
<g mask="url(#mask65_314_58)">
<mask id="mask66_314_58" style="mask-type:luminance" maskUnits="userSpaceOnUse" x="-105" y="57" width="670" height="386">
<path d="M-101.214 57.2615L564.996 62.7478L561.902 442.474L-104.307 436.987L-101.214 57.2615Z" fill="white"/>
</mask>
<g mask="url(#mask66_314_58)">
<mask id="mask67_314_58" style="mask-type:luminance" maskUnits="userSpaceOnUse" x="-105" y="57" width="670" height="386">
<path d="M-101.214 57.2615L564.996 62.7478L561.902 442.474L-104.307 436.987L-101.214 57.2615Z" fill="white"/>
</mask>
<g mask="url(#mask67_314_58)">
<path d="M425.12 439.536C433.675 424.911 429.548 407.251 415.665 397.73C401.716 388.185 383.032 393.995 374.042 407.241C372.982 408.782 373.731 410.922 375.203 411.85C390.304 421.474 405.409 431.102 420.514 440.713C424.189 443.051 427.597 437.235 423.946 434.91C408.855 425.299 393.753 415.675 378.649 406.065L379.819 410.688C387.231 399.763 400.947 396.867 412.219 403.533C423.57 410.227 425.637 425.33 419.343 436.086C417.15 439.849 422.926 443.282 425.12 439.536Z" fill="#5838A1" fill-opacity="0.3"/>
</g>
</g>
</g>
</g>
<mask id="mask68_314_58" style="mask-type:luminance" maskUnits="userSpaceOnUse" x="188" y="60" width="58" height="50">
<path d="M188.756 109.111L188.756 60.6806L245.699 60.6806L245.699 109.111L188.756 109.111Z" fill="white"/>
</mask>
<g mask="url(#mask68_314_58)">
<mask id="mask69_314_58" style="mask-type:luminance" maskUnits="userSpaceOnUse" x="-105" y="57" width="670" height="386">
<path d="M-101.214 57.2615L564.996 62.7478L561.902 442.474L-104.307 436.987L-101.214 57.2615Z" fill="white"/>
</mask>
<g mask="url(#mask69_314_58)">
<mask id="mask70_314_58" style="mask-type:luminance" maskUnits="userSpaceOnUse" x="-105" y="57" width="670" height="386">
<path d="M-101.214 57.2615L564.996 62.7478L561.902 442.474L-104.307 436.987L-101.214 57.2615Z" fill="white"/>
</mask>
<g mask="url(#mask70_314_58)">
<mask id="mask71_314_58" style="mask-type:luminance" maskUnits="userSpaceOnUse" x="-105" y="57" width="670" height="386">
<path d="M-101.214 57.2615L564.996 62.7478L561.902 442.474L-104.307 436.987L-101.214 57.2615Z" fill="white"/>
</mask>
<g mask="url(#mask71_314_58)">
<path d="M241.185 107.25C249.73 92.6316 245.603 74.9621 231.72 65.4479C217.782 55.8994 199.101 61.7125 190.111 74.9483C189.051 76.4996 189.8 78.6356 191.268 79.5747C206.373 89.1885 221.478 98.8093 236.583 108.427C240.244 110.759 243.663 104.953 240.015 102.624C224.91 93.01 209.805 83.3927 194.704 73.7754C195.094 75.3163 195.484 76.8608 195.874 78.4017C203.3 67.4773 217.002 64.5915 228.288 71.2472C239.639 77.9443 241.706 93.0444 235.409 103.797C233.215 107.553 238.992 111.003 241.185 107.25Z" fill="#5838A1" fill-opacity="0.3"/>
</g>
</g>
</g>
</g>
<mask id="mask72_314_58" style="mask-type:luminance" maskUnits="userSpaceOnUse" x="419" y="191" width="20" height="20">
<path d="M419.155 210.375L419.155 191.883L438.428 191.883L438.428 210.375L419.155 210.375Z" fill="white"/>
</mask>
<g mask="url(#mask72_314_58)">
<mask id="mask73_314_58" style="mask-type:luminance" maskUnits="userSpaceOnUse" x="-105" y="57" width="670" height="386">
<path d="M-101.213 57.2616L564.996 62.7478L561.903 442.474L-104.307 436.987L-101.213 57.2616Z" fill="white"/>
</mask>
<g mask="url(#mask73_314_58)">
<mask id="mask74_314_58" style="mask-type:luminance" maskUnits="userSpaceOnUse" x="-105" y="57" width="670" height="386">
<path d="M-101.213 57.2616L564.996 62.7478L561.903 442.474L-104.307 436.987L-101.213 57.2616Z" fill="white"/>
</mask>
<g mask="url(#mask74_314_58)">
<mask id="mask75_314_58" style="mask-type:luminance" maskUnits="userSpaceOnUse" x="-105" y="57" width="670" height="386">
<path d="M-101.213 57.2616L564.996 62.7478L561.903 442.474L-104.307 436.987L-101.213 57.2616Z" fill="white"/>
</mask>
<g mask="url(#mask75_314_58)">
<path d="M437.693 200.954C437.652 205.907 433.628 209.883 428.71 209.842C423.779 209.801 419.837 205.759 419.878 200.809C419.915 195.87 423.926 191.897 428.857 191.938C433.775 191.98 437.731 196.018 437.693 200.954Z" fill="#5838A1" fill-opacity="0.3"/>
</g>
</g>
</g>
</g>
<mask id="mask76_314_58" style="mask-type:luminance" maskUnits="userSpaceOnUse" x="128" y="310" width="20" height="20">
<path d="M128.31 329.25L128.31 310.758L147.582 310.758L147.582 329.25L128.31 329.25Z" fill="white"/>
</mask>
<g mask="url(#mask76_314_58)">
<mask id="mask77_314_58" style="mask-type:luminance" maskUnits="userSpaceOnUse" x="-105" y="57" width="670" height="386">
<path d="M-101.213 57.2615L564.996 62.7478L561.903 442.474L-104.307 436.987L-101.213 57.2615Z" fill="white"/>
</mask>
<g mask="url(#mask77_314_58)">
<mask id="mask78_314_58" style="mask-type:luminance" maskUnits="userSpaceOnUse" x="-105" y="57" width="670" height="386">
<path d="M-101.213 57.2615L564.996 62.7478L561.903 442.474L-104.307 436.987L-101.213 57.2615Z" fill="white"/>
</mask>
<g mask="url(#mask78_314_58)">
<mask id="mask79_314_58" style="mask-type:luminance" maskUnits="userSpaceOnUse" x="-105" y="57" width="670" height="386">
<path d="M-101.213 57.2615L564.996 62.7478L561.903 442.474L-104.307 436.987L-101.213 57.2615Z" fill="white"/>
</mask>
<g mask="url(#mask79_314_58)">
<path d="M146.919 319.987C146.878 324.94 142.857 328.916 137.939 328.875C133.022 328.834 129.066 324.792 129.104 319.843C129.145 314.903 133.169 310.927 138.087 310.968C143.004 311.009 146.96 315.048 146.919 319.987Z" fill="#5838A1" fill-opacity="0.3"/>
</g>
</g>
</g>
</g>
<mask id="mask80_314_58" style="mask-type:luminance" maskUnits="userSpaceOnUse" x="271" y="127" width="47" height="50">
<path d="M271.98 176.914L271.98 127.603L317.535 127.603L317.535 176.914L271.98 176.914Z" fill="white"/>
</mask>
<g mask="url(#mask80_314_58)">
<mask id="mask81_314_58" style="mask-type:luminance" maskUnits="userSpaceOnUse" x="-105" y="57" width="670" height="386">
<path d="M-101.213 57.2615L564.996 62.7478L561.903 442.474L-104.307 436.987L-101.213 57.2615Z" fill="white"/>
</mask>
<g mask="url(#mask81_314_58)">
<mask id="mask82_314_58" style="mask-type:luminance" maskUnits="userSpaceOnUse" x="-105" y="57" width="670" height="386">
<path d="M-101.213 57.2615L564.996 62.7478L561.903 442.474L-104.307 436.987L-101.213 57.2615Z" fill="white"/>
</mask>
<g mask="url(#mask82_314_58)">
<mask id="mask83_314_58" style="mask-type:luminance" maskUnits="userSpaceOnUse" x="-105" y="57" width="670" height="386">
<path d="M-101.213 57.2615L564.996 62.7478L561.903 442.474L-104.307 436.987L-101.213 57.2615Z" fill="white"/>
</mask>
<g mask="url(#mask83_314_58)">
<path d="M297.232 131.713C291.059 138.854 284.902 145.991 278.729 153.132C275.461 156.912 271.006 161.267 272.559 166.849C275.105 176.05 285.597 179.476 292.517 172.687C299.183 166.161 304.928 158.322 311.033 151.268C314.301 147.494 318.757 143.14 317.203 137.55C314.657 128.356 304.165 124.923 297.232 131.713C294.128 134.757 298.847 139.566 301.948 136.522C304.764 133.756 308.08 134.482 310.161 137.688C312.631 141.461 306.776 145.929 304.634 148.406C299.032 154.897 293.417 161.387 287.815 167.878C285.183 170.919 281.552 169.722 279.602 166.712C277.131 162.938 282.986 158.47 285.128 155.994C290.73 149.503 296.332 143.012 301.948 136.522C304.771 133.258 300.079 128.421 297.232 131.713Z" fill="#A0E7E5" fill-opacity="0.5"/>
</g>
</g>
</g>
</g>
<mask id="mask84_314_58" style="mask-type:luminance" maskUnits="userSpaceOnUse" x="289" y="333" width="20" height="21">
<path d="M289.501 353.025L289.501 333.653L308.774 333.653L308.774 353.025L289.501 353.025Z" fill="white"/>
</mask>
<g mask="url(#mask84_314_58)">
<mask id="mask85_314_58" style="mask-type:luminance" maskUnits="userSpaceOnUse" x="-105" y="57" width="670" height="386">
<path d="M-101.214 57.2615L564.996 62.7478L561.902 442.474L-104.307 436.987L-101.214 57.2615Z" fill="white"/>
</mask>
<g mask="url(#mask85_314_58)">
<mask id="mask86_314_58" style="mask-type:luminance" maskUnits="userSpaceOnUse" x="-105" y="57" width="670" height="386">
<path d="M-101.214 57.2615L564.996 62.7478L561.902 442.474L-104.307 436.987L-101.214 57.2615Z" fill="white"/>
</mask>
<g mask="url(#mask86_314_58)">
<mask id="mask87_314_58" style="mask-type:luminance" maskUnits="userSpaceOnUse" x="-105" y="57" width="670" height="386">
<path d="M-101.214 57.2615L564.996 62.7478L561.902 442.474L-104.307 436.987L-101.214 57.2615Z" fill="white"/>
</mask>
<g mask="url(#mask87_314_58)">
<path d="M307.908 343.377C307.867 348.316 303.843 352.292 298.925 352.251C293.998 352.21 290.038 348.168 290.079 343.232C290.12 338.293 294.141 334.317 299.073 334.358C303.99 334.399 307.946 338.437 307.908 343.377Z" fill="#A0E7E5" fill-opacity="0.7"/>
</g>
</g>
</g>
</g>
<mask id="mask88_314_58" style="mask-type:luminance" maskUnits="userSpaceOnUse" x="547" y="62" width="19" height="19">
<path d="M547.057 80.9333L547.057 62.4417L565.454 62.4417L565.454 80.9333L547.057 80.9333Z" fill="white"/>
</mask>
<g mask="url(#mask88_314_58)">
<mask id="mask89_314_58" style="mask-type:luminance" maskUnits="userSpaceOnUse" x="-105" y="57" width="670" height="386">
<path d="M-101.214 57.2616L564.996 62.7478L561.902 442.474L-104.307 436.987L-101.214 57.2616Z" fill="white"/>
</mask>
<g mask="url(#mask89_314_58)">
<mask id="mask90_314_58" style="mask-type:luminance" maskUnits="userSpaceOnUse" x="-105" y="57" width="670" height="386">
<path d="M-101.214 57.2616L564.996 62.7478L561.902 442.474L-104.307 436.987L-101.214 57.2616Z" fill="white"/>
</mask>
<g mask="url(#mask90_314_58)">
<mask id="mask91_314_58" style="mask-type:luminance" maskUnits="userSpaceOnUse" x="-105" y="57" width="670" height="386">
<path d="M-101.214 57.2616L564.996 62.7478L561.902 442.474L-104.307 436.987L-101.214 57.2616Z" fill="white"/>
</mask>
<g mask="url(#mask91_314_58)">
<path d="M564.92 71.7666C564.882 76.7129 560.858 80.6857 555.927 80.6444C551.009 80.6031 547.053 76.565 547.091 71.6187C547.132 66.6828 551.156 62.7031 556.074 62.7444C561.005 62.7857 564.961 66.8273 564.92 71.7666Z" fill="#A0E7E5" fill-opacity="0.7"/>
</g>
</g>
</g>
</g>
<mask id="mask92_314_58" style="mask-type:luminance" maskUnits="userSpaceOnUse" x="524" y="236" width="40" height="55">
<path d="M524.28 290.506L524.28 236.792L563.702 236.792L563.702 290.506L524.28 290.506Z" fill="white"/>
</mask>
<g mask="url(#mask92_314_58)">
<mask id="mask93_314_58" style="mask-type:luminance" maskUnits="userSpaceOnUse" x="-105" y="57" width="670" height="386">
<path d="M-101.214 57.2615L564.996 62.7478L561.902 442.474L-104.307 436.987L-101.214 57.2615Z" fill="white"/>
</mask>
<g mask="url(#mask93_314_58)">
<mask id="mask94_314_58" style="mask-type:luminance" maskUnits="userSpaceOnUse" x="-105" y="57" width="670" height="386">
<path d="M-101.214 57.2615L564.996 62.7478L561.902 442.474L-104.307 436.987L-101.214 57.2615Z" fill="white"/>
</mask>
<g mask="url(#mask94_314_58)">
<mask id="mask95_314_58" style="mask-type:luminance" maskUnits="userSpaceOnUse" x="-105" y="57" width="670" height="386">
<path d="M-101.214 57.2615L564.996 62.7478L561.902 442.474L-104.307 436.987L-101.214 57.2615Z" fill="white"/>
</mask>
<g mask="url(#mask95_314_58)">
<path d="M526.043 254.11C530.382 262.5 534.721 270.903 539.06 279.278C541.586 284.17 543.752 288.844 549.655 289.742C559.507 291.252 565.417 281.287 561.871 272.881C558.247 264.268 553.155 256.006 548.857 247.713C546.342 242.821 544.162 238.147 538.259 237.235C528.411 235.736 522.497 245.687 526.043 254.11C527.73 258.118 533.537 254.712 531.874 250.757C530.413 247.303 532.61 244.851 535.772 243.932C539.922 242.715 541.661 248.394 543.037 251.066L556.054 276.231C557.785 279.595 555.106 282.188 552.143 283.055C548.009 284.263 546.253 278.594 544.878 275.925C540.538 267.535 536.213 259.146 531.874 250.757C529.879 246.894 524.044 250.248 526.043 254.11Z" fill="#A0E7E5" fill-opacity="0.7"/>
</g>
</g>
</g>
</g>
<mask id="mask96_314_58" style="mask-type:luminance" maskUnits="userSpaceOnUse" x="209" y="380" width="23" height="41">
<path d="M209.781 420.828L209.781 380.322L231.682 380.322L231.682 420.828L209.781 420.828Z" fill="white"/>
</mask>
<g mask="url(#mask96_314_58)">
<mask id="mask97_314_58" style="mask-type:luminance" maskUnits="userSpaceOnUse" x="-105" y="57" width="670" height="386">
<path d="M-101.214 57.2615L564.996 62.7478L561.902 442.474L-104.307 436.987L-101.214 57.2615Z" fill="white"/>
</mask>
<g mask="url(#mask97_314_58)">
<mask id="mask98_314_58" style="mask-type:luminance" maskUnits="userSpaceOnUse" x="-105" y="57" width="670" height="386">
<path d="M-101.214 57.2615L564.996 62.7478L561.902 442.474L-104.307 436.987L-101.214 57.2615Z" fill="white"/>
</mask>
<g mask="url(#mask98_314_58)">
<mask id="mask99_314_58" style="mask-type:luminance" maskUnits="userSpaceOnUse" x="-105" y="57" width="670" height="386">
<path d="M-101.214 57.2615L564.996 62.7478L561.902 442.474L-104.307 436.987L-101.214 57.2615Z" fill="white"/>
</mask>
<g mask="url(#mask99_314_58)">
<path d="M230.601 415.452C225.772 404.441 220.93 393.431 216.102 382.403C214.363 378.424 208.542 381.815 210.271 385.757C215.113 396.781 219.941 407.791 224.77 418.819C226.522 422.785 232.329 419.407 230.601 415.452Z" fill="#A0E7E5" fill-opacity="0.5"/>
</g>
</g>
</g>
</g>
<mask id="mask100_314_58" style="mask-type:luminance" maskUnits="userSpaceOnUse" x="215" y="367" width="22" height="42">
<path d="M215.038 408.5L215.038 367.114L236.939 367.114L236.939 408.5L215.038 408.5Z" fill="white"/>
</mask>
<g mask="url(#mask100_314_58)">
<mask id="mask101_314_58" style="mask-type:luminance" maskUnits="userSpaceOnUse" x="-105" y="57" width="670" height="386">
<path d="M-101.214 57.2615L564.996 62.7478L561.902 442.474L-104.307 436.987L-101.214 57.2615Z" fill="white"/>
</mask>
<g mask="url(#mask101_314_58)">
<mask id="mask102_314_58" style="mask-type:luminance" maskUnits="userSpaceOnUse" x="-105" y="57" width="670" height="386">
<path d="M-101.214 57.2615L564.996 62.7478L561.902 442.474L-104.307 436.987L-101.214 57.2615Z" fill="white"/>
</mask>
<g mask="url(#mask102_314_58)">
<mask id="mask103_314_58" style="mask-type:luminance" maskUnits="userSpaceOnUse" x="-105" y="57" width="670" height="386">
<path d="M-101.214 57.2615L564.996 62.7478L561.902 442.474L-104.307 436.987L-101.214 57.2615Z" fill="white"/>
</mask>
<g mask="url(#mask103_314_58)">
<path d="M236.186 402.598C231.36 391.573 226.532 380.56 221.69 369.535C219.948 365.566 214.13 368.947 215.859 372.903C220.701 383.913 225.526 394.937 230.354 405.948C232.096 409.931 237.914 406.536 236.186 402.598Z" fill="#A0E7E5" fill-opacity="0.5"/>
</g>
</g>
</g>
</g>
<mask id="mask104_314_58" style="mask-type:luminance" maskUnits="userSpaceOnUse" x="196" y="375" width="23" height="42">
<path d="M196.641 416.425L196.641 375.919L218.542 375.919L218.542 416.425L196.641 416.425Z" fill="white"/>
</mask>
<g mask="url(#mask104_314_58)">
<mask id="mask105_314_58" style="mask-type:luminance" maskUnits="userSpaceOnUse" x="-105" y="57" width="670" height="386">
<path d="M-101.214 57.2615L564.996 62.7478L561.902 442.474L-104.307 436.987L-101.214 57.2615Z" fill="white"/>
</mask>
<g mask="url(#mask105_314_58)">
<mask id="mask106_314_58" style="mask-type:luminance" maskUnits="userSpaceOnUse" x="-105" y="57" width="670" height="386">
<path d="M-101.214 57.2615L564.996 62.7478L561.902 442.474L-104.307 436.987L-101.214 57.2615Z" fill="white"/>
</mask>
<g mask="url(#mask106_314_58)">
<mask id="mask107_314_58" style="mask-type:luminance" maskUnits="userSpaceOnUse" x="-105" y="57" width="670" height="386">
<path d="M-101.214 57.2615L564.996 62.7478L561.902 442.474L-104.307 436.987L-101.214 57.2615Z" fill="white"/>
</mask>
<g mask="url(#mask107_314_58)">
<path d="M217.361 410.915C212.536 399.904 207.707 388.88 202.879 377.87C201.123 373.887 195.32 377.282 197.048 381.223C201.876 392.234 206.701 403.258 211.543 414.282C213.285 418.251 219.103 414.87 217.361 410.915Z" fill="#A0E7E5" fill-opacity="0.5"/>
</g>
</g>
</g>
</g>
<mask id="mask108_314_58" style="mask-type:luminance" maskUnits="userSpaceOnUse" x="130" y="102" width="20" height="20">
<path d="M130.062 121.439L130.062 102.067L149.334 102.067L149.334 121.439L130.062 121.439Z" fill="white"/>
</mask>
<g mask="url(#mask108_314_58)">
<mask id="mask109_314_58" style="mask-type:luminance" maskUnits="userSpaceOnUse" x="-105" y="57" width="670" height="386">
<path d="M-101.214 57.2615L564.996 62.7478L561.902 442.474L-104.307 436.987L-101.214 57.2615Z" fill="white"/>
</mask>
<g mask="url(#mask109_314_58)">
<mask id="mask110_314_58" style="mask-type:luminance" maskUnits="userSpaceOnUse" x="-105" y="57" width="670" height="386">
<path d="M-101.214 57.2615L564.996 62.7478L561.902 442.474L-104.307 436.987L-101.214 57.2615Z" fill="white"/>
</mask>
<g mask="url(#mask110_314_58)">
<mask id="mask111_314_58" style="mask-type:luminance" maskUnits="userSpaceOnUse" x="-105" y="57" width="670" height="386">
<path d="M-101.214 57.2615L564.996 62.7478L561.902 442.474L-104.307 436.987L-101.214 57.2615Z" fill="white"/>
</mask>
<g mask="url(#mask111_314_58)">
<path d="M148.616 111.945C148.575 116.885 144.55 120.861 139.633 120.823C134.715 120.782 130.76 116.737 130.801 111.797C130.838 106.855 134.863 102.882 139.78 102.92C144.698 102.961 148.653 106.999 148.616 111.945Z" fill="#A0E7E5" fill-opacity="0.5"/>
</g>
</g>
</g>
</g>
<mask id="mask112_314_58" style="mask-type:luminance" maskUnits="userSpaceOnUse" x="321" y="232" width="20" height="19">
<path d="M321.915 250.881L321.915 232.389L340.311 232.389L340.311 250.881L321.915 250.881Z" fill="white"/>
</mask>
<g mask="url(#mask112_314_58)">
<mask id="mask113_314_58" style="mask-type:luminance" maskUnits="userSpaceOnUse" x="-105" y="57" width="670" height="386">
<path d="M-101.214 57.2615L564.996 62.7478L561.902 442.474L-104.307 436.987L-101.214 57.2615Z" fill="white"/>
</mask>
<g mask="url(#mask113_314_58)">
<mask id="mask114_314_58" style="mask-type:luminance" maskUnits="userSpaceOnUse" x="-105" y="57" width="670" height="386">
<path d="M-101.214 57.2615L564.996 62.7478L561.902 442.474L-104.307 436.987L-101.214 57.2615Z" fill="white"/>
</mask>
<g mask="url(#mask114_314_58)">
<mask id="mask115_314_58" style="mask-type:luminance" maskUnits="userSpaceOnUse" x="-105" y="57" width="670" height="386">
<path d="M-101.214 57.2615L564.996 62.7478L561.902 442.474L-104.307 436.987L-101.214 57.2615Z" fill="white"/>
</mask>
<g mask="url(#mask115_314_58)">
<path d="M340.003 241.58C339.962 246.519 335.938 250.495 331.007 250.454C326.093 250.413 322.134 246.371 322.175 241.432C322.216 236.482 326.237 232.506 331.154 232.547C336.085 232.588 340.041 236.627 340.003 241.58Z" fill="#A0E7E5" fill-opacity="0.5"/>
</g>
</g>
</g>
</g>
<mask id="mask116_314_58" style="mask-type:luminance" maskUnits="userSpaceOnUse" x="499" y="120" width="35" height="35">
<path d="M499.751 154.02L499.751 120.558L533.041 120.558L533.041 154.019L499.751 154.02Z" fill="white"/>
</mask>
<g mask="url(#mask116_314_58)">
<mask id="mask117_314_58" style="mask-type:luminance" maskUnits="userSpaceOnUse" x="-105" y="57" width="670" height="386">
<path d="M-101.214 57.2616L564.996 62.7478L561.902 442.474L-104.307 436.987L-101.214 57.2616Z" fill="white"/>
</mask>
<g mask="url(#mask117_314_58)">
<mask id="mask118_314_58" style="mask-type:luminance" maskUnits="userSpaceOnUse" x="-105" y="57" width="670" height="386">
<path d="M-101.214 57.2616L564.996 62.7478L561.902 442.474L-104.307 436.987L-101.214 57.2616Z" fill="white"/>
</mask>
<g mask="url(#mask118_314_58)">
<mask id="mask119_314_58" style="mask-type:luminance" maskUnits="userSpaceOnUse" x="-105" y="57" width="670" height="386">
<path d="M-101.214 57.2616L564.996 62.7478L561.902 442.474L-104.307 436.987L-101.214 57.2616Z" fill="white"/>
</mask>
<g mask="url(#mask119_314_58)">
<path d="M526.621 122.168C518.086 130.626 509.555 139.084 501.034 147.546C497.944 150.604 502.663 155.413 505.736 152.355C514.271 143.897 522.805 135.435 531.326 126.984C534.413 123.919 529.711 119.11 526.621 122.168Z" fill="#A0E7E5" fill-opacity="0.5"/>
</g>
</g>
</g>
</g>
<mask id="mask120_314_58" style="mask-type:luminance" maskUnits="userSpaceOnUse" x="485" y="119" width="35" height="35">
<path d="M485.734 153.139L485.734 119.678L519.024 119.678L519.024 153.139L485.734 153.139Z" fill="white"/>
</mask>
<g mask="url(#mask120_314_58)">
<mask id="mask121_314_58" style="mask-type:luminance" maskUnits="userSpaceOnUse" x="-105" y="57" width="670" height="386">
<path d="M-101.214 57.2616L564.996 62.7478L561.902 442.474L-104.307 436.987L-101.214 57.2616Z" fill="white"/>
</mask>
<g mask="url(#mask121_314_58)">
<mask id="mask122_314_58" style="mask-type:luminance" maskUnits="userSpaceOnUse" x="-105" y="57" width="670" height="386">
<path d="M-101.214 57.2616L564.996 62.7478L561.902 442.474L-104.307 436.987L-101.214 57.2616Z" fill="white"/>
</mask>
<g mask="url(#mask122_314_58)">
<mask id="mask123_314_58" style="mask-type:luminance" maskUnits="userSpaceOnUse" x="-105" y="57" width="670" height="386">
<path d="M-101.214 57.2616L564.996 62.7478L561.902 442.474L-104.307 436.987L-101.214 57.2616Z" fill="white"/>
</mask>
<g mask="url(#mask123_314_58)">
<path d="M512.666 121.511C504.131 129.966 495.6 138.424 487.079 146.882C483.989 149.94 488.695 154.749 491.781 151.691C500.316 143.233 508.85 134.774 517.371 126.32C520.458 123.255 515.756 118.446 512.666 121.511Z" fill="#A0E7E5" fill-opacity="0.5"/>
</g>
</g>
</g>
</g>
<mask id="mask124_314_58" style="mask-type:luminance" maskUnits="userSpaceOnUse" x="499" y="134" width="35" height="35">
<path d="M499.751 168.108L499.751 134.647L533.041 134.647L533.041 168.108L499.751 168.108Z" fill="white"/>
</mask>
<g mask="url(#mask124_314_58)">
<mask id="mask125_314_58" style="mask-type:luminance" maskUnits="userSpaceOnUse" x="-105" y="57" width="670" height="386">
<path d="M-101.214 57.2616L564.996 62.7478L561.902 442.474L-104.307 436.987L-101.214 57.2616Z" fill="white"/>
</mask>
<g mask="url(#mask125_314_58)">
<mask id="mask126_314_58" style="mask-type:luminance" maskUnits="userSpaceOnUse" x="-105" y="57" width="670" height="386">
<path d="M-101.214 57.2616L564.996 62.7478L561.902 442.474L-104.307 436.987L-101.214 57.2616Z" fill="white"/>
</mask>
<g mask="url(#mask126_314_58)">
<mask id="mask127_314_58" style="mask-type:luminance" maskUnits="userSpaceOnUse" x="-105" y="57" width="670" height="386">
<path d="M-101.214 57.2616L564.996 62.7478L561.902 442.474L-104.307 436.987L-101.214 57.2616Z" fill="white"/>
</mask>
<g mask="url(#mask127_314_58)">
<path d="M527.11 136.205C518.579 144.664 510.058 153.122 501.524 161.58C498.437 164.641 503.139 169.45 506.243 166.392C514.76 157.934 523.295 149.472 531.829 141.014C534.916 137.956 530.2 133.148 527.11 136.205Z" fill="#A0E7E5" fill-opacity="0.5"/>
</g>
</g>
</g>
</g>
<mask id="mask128_314_58" style="mask-type:luminance" maskUnits="userSpaceOnUse" x="525" y="372" width="19" height="20">
<path d="M525.156 391.769L525.156 372.397L543.553 372.397L543.553 391.769L525.156 391.769Z" fill="white"/>
</mask>
<g mask="url(#mask128_314_58)">
<mask id="mask129_314_58" style="mask-type:luminance" maskUnits="userSpaceOnUse" x="-105" y="57" width="670" height="386">
<path d="M-101.214 57.2615L564.996 62.7478L561.902 442.474L-104.307 436.987L-101.214 57.2615Z" fill="white"/>
</mask>
<g mask="url(#mask129_314_58)">
<mask id="mask130_314_58" style="mask-type:luminance" maskUnits="userSpaceOnUse" x="-105" y="57" width="670" height="386">
<path d="M-101.214 57.2615L564.996 62.7478L561.902 442.474L-104.307 436.987L-101.214 57.2615Z" fill="white"/>
</mask>
<g mask="url(#mask130_314_58)">
<mask id="mask131_314_58" style="mask-type:luminance" maskUnits="userSpaceOnUse" x="-105" y="57" width="670" height="386">
<path d="M-101.214 57.2615L564.996 62.7478L561.902 442.474L-104.307 436.987L-101.214 57.2615Z" fill="white"/>
</mask>
<g mask="url(#mask131_314_58)">
<path d="M543.218 382.224C543.177 387.164 539.156 391.137 534.238 391.095C529.307 391.057 525.362 387.016 525.403 382.076C525.444 377.123 529.454 373.151 534.382 373.188C539.3 373.23 543.259 377.271 543.218 382.224Z" fill="#A0E7E5" fill-opacity="0.3"/>
</g>
</g>
</g>
</g>
</g>
<defs>
<clipPath id="clip0_314_58">
<rect width="634" height="841" fill="white" transform="translate(-237 567) rotate(-90)"/>
</clipPath>
</defs>
</svg>
