<?xml version="1.0" encoding="utf-8"?>
<svg viewBox="0 0 721.569 657.255" xmlns="http://www.w3.org/2000/svg">
  <defs>
    <clipPath id="7d18cc2dbf">
      <path d="M 513 155 L 566 155 L 566 239 L 513 239 Z M 513 155 " clip-rule="nonzero"/>
    </clipPath>
    <clipPath id="238397c1a4">
      <path d="M 578.882812 155 L 572.652344 915.476562 L 141.417969 911.945312 L 147.648438 151.46875 Z M 578.882812 155 " clip-rule="nonzero"/>
    </clipPath>
    <clipPath id="d1502c4599">
      <path d="M 578.882812 155 L 572.652344 915.476562 L 141.417969 911.945312 L 147.648438 151.46875 Z M 578.882812 155 " clip-rule="nonzero"/>
    </clipPath>
    <clipPath id="92e326bddf">
      <path d="M 578.882812 155 L 572.652344 915.476562 L 141.417969 911.945312 L 147.648438 151.46875 Z M 578.882812 155 " clip-rule="nonzero"/>
    </clipPath>
    <clipPath id="880e3831d4">
      <path d="M 284 234 L 309 234 L 309 280 L 284 280 Z M 284 234 " clip-rule="nonzero"/>
    </clipPath>
    <clipPath id="119dba15f6">
      <path d="M 578.882812 155 L 572.652344 915.476562 L 141.417969 911.945312 L 147.648438 151.46875 Z M 578.882812 155 " clip-rule="nonzero"/>
    </clipPath>
    <clipPath id="ee9558ca05">
      <path d="M 578.882812 155 L 572.652344 915.476562 L 141.417969 911.945312 L 147.648438 151.46875 Z M 578.882812 155 " clip-rule="nonzero"/>
    </clipPath>
    <clipPath id="38bdfaf1e7">
      <path d="M 578.882812 155 L 572.652344 915.476562 L 141.417969 911.945312 L 147.648438 151.46875 Z M 578.882812 155 " clip-rule="nonzero"/>
    </clipPath>
    <clipPath id="284db23938">
      <path d="M 299 229 L 325 229 L 325 275 L 299 275 Z M 299 229 " clip-rule="nonzero"/>
    </clipPath>
    <clipPath id="af207d30a6">
      <path d="M 578.882812 155 L 572.652344 915.476562 L 141.417969 911.945312 L 147.648438 151.46875 Z M 578.882812 155 " clip-rule="nonzero"/>
    </clipPath>
    <clipPath id="fd25fcd0b1">
      <path d="M 578.882812 155 L 572.652344 915.476562 L 141.417969 911.945312 L 147.648438 151.46875 Z M 578.882812 155 " clip-rule="nonzero"/>
    </clipPath>
    <clipPath id="fbba37b3f3">
      <path d="M 578.882812 155 L 572.652344 915.476562 L 141.417969 911.945312 L 147.648438 151.46875 Z M 578.882812 155 " clip-rule="nonzero"/>
    </clipPath>
    <clipPath id="aceef9bd48">
      <path d="M 278 220 L 303 220 L 303 266 L 278 266 Z M 278 220 " clip-rule="nonzero"/>
    </clipPath>
    <clipPath id="06af4731e0">
      <path d="M 578.882812 155 L 572.652344 915.476562 L 141.417969 911.945312 L 147.648438 151.46875 Z M 578.882812 155 " clip-rule="nonzero"/>
    </clipPath>
    <clipPath id="6e704ccb51">
      <path d="M 578.882812 155 L 572.652344 915.476562 L 141.417969 911.945312 L 147.648438 151.46875 Z M 578.882812 155 " clip-rule="nonzero"/>
    </clipPath>
    <clipPath id="3a1daee0aa">
      <path d="M 578.882812 155 L 572.652344 915.476562 L 141.417969 911.945312 L 147.648438 151.46875 Z M 578.882812 155 " clip-rule="nonzero"/>
    </clipPath>
    <clipPath id="c39629e1b7">
      <path d="M 147 151 L 203 151 L 203 216 L 147 216 Z M 147 151 " clip-rule="nonzero"/>
    </clipPath>
    <clipPath id="03825ad5ba">
      <path d="M 578.882812 155 L 572.652344 915.476562 L 141.417969 911.945312 L 147.648438 151.46875 Z M 578.882812 155 " clip-rule="nonzero"/>
    </clipPath>
    <clipPath id="817e115800">
      <path d="M 578.882812 155 L 572.652344 915.476562 L 141.417969 911.945312 L 147.648438 151.46875 Z M 578.882812 155 " clip-rule="nonzero"/>
    </clipPath>
    <clipPath id="a29cb74c92">
      <path d="M 578.882812 155 L 572.652344 915.476562 L 141.417969 911.945312 L 147.648438 151.46875 Z M 578.882812 155 " clip-rule="nonzero"/>
    </clipPath>
    <clipPath id="a68521572c">
      <path d="M 410 204 L 431 204 L 431 225 L 410 225 Z M 410 204 " clip-rule="nonzero"/>
    </clipPath>
    <clipPath id="6b84fb9d99">
      <path d="M 578.882812 155 L 572.652344 915.476562 L 141.417969 911.945312 L 147.648438 151.46875 Z M 578.882812 155 " clip-rule="nonzero"/>
    </clipPath>
    <clipPath id="0ab059ccf6">
      <path d="M 578.882812 155 L 572.652344 915.476562 L 141.417969 911.945312 L 147.648438 151.46875 Z M 578.882812 155 " clip-rule="nonzero"/>
    </clipPath>
    <clipPath id="33745bd805">
      <path d="M 578.882812 155 L 572.652344 915.476562 L 141.417969 911.945312 L 147.648438 151.46875 Z M 578.882812 155 " clip-rule="nonzero"/>
    </clipPath>
    <clipPath id="bf55e06fa4">
      <path d="M 319 324 L 380 324 L 380 368 L 319 368 Z M 319 324 " clip-rule="nonzero"/>
    </clipPath>
    <clipPath id="de55b67450">
      <path d="M 578.882812 155 L 572.652344 915.476562 L 141.417969 911.945312 L 147.648438 151.46875 Z M 578.882812 155 " clip-rule="nonzero"/>
    </clipPath>
    <clipPath id="5db640f521">
      <path d="M 578.882812 155 L 572.652344 915.476562 L 141.417969 911.945312 L 147.648438 151.46875 Z M 578.882812 155 " clip-rule="nonzero"/>
    </clipPath>
    <clipPath id="3c9d4b3711">
      <path d="M 578.882812 155 L 572.652344 915.476562 L 141.417969 911.945312 L 147.648438 151.46875 Z M 578.882812 155 " clip-rule="nonzero"/>
    </clipPath>
    <clipPath id="0de6dc45f9">
      <path d="M 556 349 L 578 349 L 578 371 L 556 371 Z M 556 349 " clip-rule="nonzero"/>
    </clipPath>
    <clipPath id="9a1b255d9a">
      <path d="M 578.882812 155 L 572.652344 915.476562 L 141.417969 911.945312 L 147.648438 151.46875 Z M 578.882812 155 " clip-rule="nonzero"/>
    </clipPath>
    <clipPath id="fe1e22d38b">
      <path d="M 578.882812 155 L 572.652344 915.476562 L 141.417969 911.945312 L 147.648438 151.46875 Z M 578.882812 155 " clip-rule="nonzero"/>
    </clipPath>
    <clipPath id="225dbb8a6d">
      <path d="M 578.882812 155 L 572.652344 915.476562 L 141.417969 911.945312 L 147.648438 151.46875 Z M 578.882812 155 " clip-rule="nonzero"/>
    </clipPath>
    <clipPath id="2bf27ff51d">
      <path d="M 474 296 L 511 296 L 511 334 L 474 334 Z M 474 296 " clip-rule="nonzero"/>
    </clipPath>
    <clipPath id="fcce746e7c">
      <path d="M 578.882812 155 L 572.652344 915.476562 L 141.417969 911.945312 L 147.648438 151.46875 Z M 578.882812 155 " clip-rule="nonzero"/>
    </clipPath>
    <clipPath id="0e0317cba5">
      <path d="M 578.882812 155 L 572.652344 915.476562 L 141.417969 911.945312 L 147.648438 151.46875 Z M 578.882812 155 " clip-rule="nonzero"/>
    </clipPath>
    <clipPath id="a428ed1787">
      <path d="M 578.882812 155 L 572.652344 915.476562 L 141.417969 911.945312 L 147.648438 151.46875 Z M 578.882812 155 " clip-rule="nonzero"/>
    </clipPath>
    <clipPath id="762b03c2c5">
      <path d="M 474 280 L 512 280 L 512 318 L 474 318 Z M 474 280 " clip-rule="nonzero"/>
    </clipPath>
    <clipPath id="87a396c335">
      <path d="M 578.882812 155 L 572.652344 915.476562 L 141.417969 911.945312 L 147.648438 151.46875 Z M 578.882812 155 " clip-rule="nonzero"/>
    </clipPath>
    <clipPath id="ccd79685ff">
      <path d="M 578.882812 155 L 572.652344 915.476562 L 141.417969 911.945312 L 147.648438 151.46875 Z M 578.882812 155 " clip-rule="nonzero"/>
    </clipPath>
    <clipPath id="07eb21be03">
      <path d="M 578.882812 155 L 572.652344 915.476562 L 141.417969 911.945312 L 147.648438 151.46875 Z M 578.882812 155 " clip-rule="nonzero"/>
    </clipPath>
    <clipPath id="0ca0dc2b67">
      <path d="M 458 296 L 495 296 L 495 334 L 458 334 Z M 458 296 " clip-rule="nonzero"/>
    </clipPath>
    <clipPath id="a937bd6ae7">
      <path d="M 578.882812 155 L 572.652344 915.476562 L 141.417969 911.945312 L 147.648438 151.46875 Z M 578.882812 155 " clip-rule="nonzero"/>
    </clipPath>
    <clipPath id="89aa5e4b10">
      <path d="M 578.882812 155 L 572.652344 915.476562 L 141.417969 911.945312 L 147.648438 151.46875 Z M 578.882812 155 " clip-rule="nonzero"/>
    </clipPath>
    <clipPath id="2f16058253">
      <path d="M 578.882812 155 L 572.652344 915.476562 L 141.417969 911.945312 L 147.648438 151.46875 Z M 578.882812 155 " clip-rule="nonzero"/>
    </clipPath>
    <clipPath id="e0de3b5ff4">
      <path d="M 204 325 L 225 325 L 225 346 L 204 346 Z M 204 325 " clip-rule="nonzero"/>
    </clipPath>
    <clipPath id="3a32374519">
      <path d="M 578.882812 155 L 572.652344 915.476562 L 141.417969 911.945312 L 147.648438 151.46875 Z M 578.882812 155 " clip-rule="nonzero"/>
    </clipPath>
    <clipPath id="9eb2362c0c">
      <path d="M 578.882812 155 L 572.652344 915.476562 L 141.417969 911.945312 L 147.648438 151.46875 Z M 578.882812 155 " clip-rule="nonzero"/>
    </clipPath>
    <clipPath id="5879bf4d83">
      <path d="M 578.882812 155 L 572.652344 915.476562 L 141.417969 911.945312 L 147.648438 151.46875 Z M 578.882812 155 " clip-rule="nonzero"/>
    </clipPath>
    <clipPath id="bc81d60874">
      <path d="M 303 479 L 365 479 L 365 561 L 303 561 Z M 303 479 " clip-rule="nonzero"/>
    </clipPath>
    <clipPath id="e1e470261f">
      <path d="M 578.882812 155 L 572.652344 915.476562 L 141.417969 911.945312 L 147.648438 151.46875 Z M 578.882812 155 " clip-rule="nonzero"/>
    </clipPath>
    <clipPath id="d7c139b73d">
      <path d="M 578.882812 155 L 572.652344 915.476562 L 141.417969 911.945312 L 147.648438 151.46875 Z M 578.882812 155 " clip-rule="nonzero"/>
    </clipPath>
    <clipPath id="203087e631">
      <path d="M 578.882812 155 L 572.652344 915.476562 L 141.417969 911.945312 L 147.648438 151.46875 Z M 578.882812 155 " clip-rule="nonzero"/>
    </clipPath>
    <clipPath id="c27f872d91">
      <path d="M 419 441 L 432 441 L 432 490 L 419 490 Z M 419 441 " clip-rule="nonzero"/>
    </clipPath>
    <clipPath id="d17bec7239">
      <path d="M 578.882812 155 L 572.652344 915.476562 L 141.417969 911.945312 L 147.648438 151.46875 Z M 578.882812 155 " clip-rule="nonzero"/>
    </clipPath>
    <clipPath id="7d072794a8">
      <path d="M 578.882812 155 L 572.652344 915.476562 L 141.417969 911.945312 L 147.648438 151.46875 Z M 578.882812 155 " clip-rule="nonzero"/>
    </clipPath>
    <clipPath id="cd48deb022">
      <path d="M 578.882812 155 L 572.652344 915.476562 L 141.417969 911.945312 L 147.648438 151.46875 Z M 578.882812 155 " clip-rule="nonzero"/>
    </clipPath>
    <clipPath id="ee16a04226">
      <path d="M 408 454 L 422 454 L 422 503 L 408 503 Z M 408 454 " clip-rule="nonzero"/>
    </clipPath>
    <clipPath id="e08b6b6623">
      <path d="M 578.882812 155 L 572.652344 915.476562 L 141.417969 911.945312 L 147.648438 151.46875 Z M 578.882812 155 " clip-rule="nonzero"/>
    </clipPath>
    <clipPath id="b822587c69">
      <path d="M 578.882812 155 L 572.652344 915.476562 L 141.417969 911.945312 L 147.648438 151.46875 Z M 578.882812 155 " clip-rule="nonzero"/>
    </clipPath>
    <clipPath id="5b07394b5a">
      <path d="M 578.882812 155 L 572.652344 915.476562 L 141.417969 911.945312 L 147.648438 151.46875 Z M 578.882812 155 " clip-rule="nonzero"/>
    </clipPath>
    <clipPath id="2a248342ff">
      <path d="M 432 451 L 445 451 L 445 500 L 432 500 Z M 432 451 " clip-rule="nonzero"/>
    </clipPath>
    <clipPath id="4525407163">
      <path d="M 578.882812 155 L 572.652344 915.476562 L 141.417969 911.945312 L 147.648438 151.46875 Z M 578.882812 155 " clip-rule="nonzero"/>
    </clipPath>
    <clipPath id="40954f20c8">
      <path d="M 578.882812 155 L 572.652344 915.476562 L 141.417969 911.945312 L 147.648438 151.46875 Z M 578.882812 155 " clip-rule="nonzero"/>
    </clipPath>
    <clipPath id="d7409c00a1">
      <path d="M 578.882812 155 L 572.652344 915.476562 L 141.417969 911.945312 L 147.648438 151.46875 Z M 578.882812 155 " clip-rule="nonzero"/>
    </clipPath>
    <clipPath id="b1e2eb4349">
      <path d="M 509 700 L 561 700 L 561 785 L 509 785 Z M 509 700 " clip-rule="nonzero"/>
    </clipPath>
    <clipPath id="f287c05cb1">
      <path d="M 578.882812 155 L 572.652344 915.476562 L 141.417969 911.945312 L 147.648438 151.46875 Z M 578.882812 155 " clip-rule="nonzero"/>
    </clipPath>
    <clipPath id="537fba3779">
      <path d="M 578.882812 155 L 572.652344 915.476562 L 141.417969 911.945312 L 147.648438 151.46875 Z M 578.882812 155 " clip-rule="nonzero"/>
    </clipPath>
    <clipPath id="f8f0c2ffde">
      <path d="M 578.882812 155 L 572.652344 915.476562 L 141.417969 911.945312 L 147.648438 151.46875 Z M 578.882812 155 " clip-rule="nonzero"/>
    </clipPath>
    <clipPath id="c00da27901">
      <path d="M 279 779 L 305 779 L 305 826 L 279 826 Z M 279 779 " clip-rule="nonzero"/>
    </clipPath>
    <clipPath id="904098243f">
      <path d="M 578.882812 155 L 572.652344 915.476562 L 141.417969 911.945312 L 147.648438 151.46875 Z M 578.882812 155 " clip-rule="nonzero"/>
    </clipPath>
    <clipPath id="84337c3811">
      <path d="M 578.882812 155 L 572.652344 915.476562 L 141.417969 911.945312 L 147.648438 151.46875 Z M 578.882812 155 " clip-rule="nonzero"/>
    </clipPath>
    <clipPath id="da9ed8d544">
      <path d="M 578.882812 155 L 572.652344 915.476562 L 141.417969 911.945312 L 147.648438 151.46875 Z M 578.882812 155 " clip-rule="nonzero"/>
    </clipPath>
    <clipPath id="9581a9225c">
      <path d="M 295 774 L 320 774 L 320 821 L 295 821 Z M 295 774 " clip-rule="nonzero"/>
    </clipPath>
    <clipPath id="84c4bc8ed8">
      <path d="M 578.882812 155 L 572.652344 915.476562 L 141.417969 911.945312 L 147.648438 151.46875 Z M 578.882812 155 " clip-rule="nonzero"/>
    </clipPath>
    <clipPath id="a906640dba">
      <path d="M 578.882812 155 L 572.652344 915.476562 L 141.417969 911.945312 L 147.648438 151.46875 Z M 578.882812 155 " clip-rule="nonzero"/>
    </clipPath>
    <clipPath id="039a659cbd">
      <path d="M 578.882812 155 L 572.652344 915.476562 L 141.417969 911.945312 L 147.648438 151.46875 Z M 578.882812 155 " clip-rule="nonzero"/>
    </clipPath>
    <clipPath id="8796e89efb">
      <path d="M 273 765 L 299 765 L 299 811 L 273 811 Z M 273 765 " clip-rule="nonzero"/>
    </clipPath>
    <clipPath id="65548be1b3">
      <path d="M 578.882812 155 L 572.652344 915.476562 L 141.417969 911.945312 L 147.648438 151.46875 Z M 578.882812 155 " clip-rule="nonzero"/>
    </clipPath>
    <clipPath id="4187cf7a3d">
      <path d="M 578.882812 155 L 572.652344 915.476562 L 141.417969 911.945312 L 147.648438 151.46875 Z M 578.882812 155 " clip-rule="nonzero"/>
    </clipPath>
    <clipPath id="2a63a2dc5a">
      <path d="M 578.882812 155 L 572.652344 915.476562 L 141.417969 911.945312 L 147.648438 151.46875 Z M 578.882812 155 " clip-rule="nonzero"/>
    </clipPath>
    <clipPath id="7cc646b1d6">
      <path d="M 520 486 L 575 486 L 575 551 L 520 551 Z M 520 486 " clip-rule="nonzero"/>
    </clipPath>
    <clipPath id="0421caf323">
      <path d="M 578.882812 155 L 572.652344 915.476562 L 141.417969 911.945312 L 147.648438 151.46875 Z M 578.882812 155 " clip-rule="nonzero"/>
    </clipPath>
    <clipPath id="2d71805de1">
      <path d="M 578.882812 155 L 572.652344 915.476562 L 141.417969 911.945312 L 147.648438 151.46875 Z M 578.882812 155 " clip-rule="nonzero"/>
    </clipPath>
    <clipPath id="22eac0499a">
      <path d="M 578.882812 155 L 572.652344 915.476562 L 141.417969 911.945312 L 147.648438 151.46875 Z M 578.882812 155 " clip-rule="nonzero"/>
    </clipPath>
    <clipPath id="70656a8798">
      <path d="M 405 749 L 426 749 L 426 771 L 405 771 Z M 405 749 " clip-rule="nonzero"/>
    </clipPath>
    <clipPath id="c95a9e66bb">
      <path d="M 578.882812 155 L 572.652344 915.476562 L 141.417969 911.945312 L 147.648438 151.46875 Z M 578.882812 155 " clip-rule="nonzero"/>
    </clipPath>
    <clipPath id="04ff19ff16">
      <path d="M 578.882812 155 L 572.652344 915.476562 L 141.417969 911.945312 L 147.648438 151.46875 Z M 578.882812 155 " clip-rule="nonzero"/>
    </clipPath>
    <clipPath id="126d9bc810">
      <path d="M 578.882812 155 L 572.652344 915.476562 L 141.417969 911.945312 L 147.648438 151.46875 Z M 578.882812 155 " clip-rule="nonzero"/>
    </clipPath>
    <clipPath id="521c0b2e36">
      <path d="M 270 417 L 291 417 L 291 439 L 270 439 Z M 270 417 " clip-rule="nonzero"/>
    </clipPath>
    <clipPath id="a5e6334a7f">
      <path d="M 578.882812 155 L 572.652344 915.476562 L 141.417969 911.945312 L 147.648438 151.46875 Z M 578.882812 155 " clip-rule="nonzero"/>
    </clipPath>
    <clipPath id="2a07acbe2e">
      <path d="M 578.882812 155 L 572.652344 915.476562 L 141.417969 911.945312 L 147.648438 151.46875 Z M 578.882812 155 " clip-rule="nonzero"/>
    </clipPath>
    <clipPath id="206083f3cf">
      <path d="M 578.882812 155 L 572.652344 915.476562 L 141.417969 911.945312 L 147.648438 151.46875 Z M 578.882812 155 " clip-rule="nonzero"/>
    </clipPath>
    <clipPath id="d8b80347e2">
      <path d="M 443 581 L 499 581 L 499 633 L 443 633 Z M 443 581 " clip-rule="nonzero"/>
    </clipPath>
    <clipPath id="c4185d61ea">
      <path d="M 578.882812 155 L 572.652344 915.476562 L 141.417969 911.945312 L 147.648438 151.46875 Z M 578.882812 155 " clip-rule="nonzero"/>
    </clipPath>
    <clipPath id="58db5bc9ea">
      <path d="M 578.882812 155 L 572.652344 915.476562 L 141.417969 911.945312 L 147.648438 151.46875 Z M 578.882812 155 " clip-rule="nonzero"/>
    </clipPath>
    <clipPath id="dd8cb07a77">
      <path d="M 578.882812 155 L 572.652344 915.476562 L 141.417969 911.945312 L 147.648438 151.46875 Z M 578.882812 155 " clip-rule="nonzero"/>
    </clipPath>
    <clipPath id="9c15e5e5e7">
      <path d="M 243 601 L 265 601 L 265 623 L 243 623 Z M 243 601 " clip-rule="nonzero"/>
    </clipPath>
    <clipPath id="b7624081ac">
      <path d="M 578.882812 155 L 572.652344 915.476562 L 141.417969 911.945312 L 147.648438 151.46875 Z M 578.882812 155 " clip-rule="nonzero"/>
    </clipPath>
    <clipPath id="c10d45a45b">
      <path d="M 578.882812 155 L 572.652344 915.476562 L 141.417969 911.945312 L 147.648438 151.46875 Z M 578.882812 155 " clip-rule="nonzero"/>
    </clipPath>
    <clipPath id="fbd6faed53">
      <path d="M 578.882812 155 L 572.652344 915.476562 L 141.417969 911.945312 L 147.648438 151.46875 Z M 578.882812 155 " clip-rule="nonzero"/>
    </clipPath>
    <clipPath id="7a4c0d2dcb">
      <path d="M 552 895 L 573 895 L 573 916 L 552 916 Z M 552 895 " clip-rule="nonzero"/>
    </clipPath>
    <clipPath id="97c4369639">
      <path d="M 578.882812 155 L 572.652344 915.476562 L 141.417969 911.945312 L 147.648438 151.46875 Z M 578.882812 155 " clip-rule="nonzero"/>
    </clipPath>
    <clipPath id="a5f5f4d75e">
      <path d="M 578.882812 155 L 572.652344 915.476562 L 141.417969 911.945312 L 147.648438 151.46875 Z M 578.882812 155 " clip-rule="nonzero"/>
    </clipPath>
    <clipPath id="e7a62a20e8">
      <path d="M 578.882812 155 L 572.652344 915.476562 L 141.417969 911.945312 L 147.648438 151.46875 Z M 578.882812 155 " clip-rule="nonzero"/>
    </clipPath>
    <clipPath id="4999e380bf">
      <path d="M 314 869 L 375 869 L 375 914 L 314 914 Z M 314 869 " clip-rule="nonzero"/>
    </clipPath>
    <clipPath id="73fab243c9">
      <path d="M 578.882812 155 L 572.652344 915.476562 L 141.417969 911.945312 L 147.648438 151.46875 Z M 578.882812 155 " clip-rule="nonzero"/>
    </clipPath>
    <clipPath id="2e65931833">
      <path d="M 578.882812 155 L 572.652344 915.476562 L 141.417969 911.945312 L 147.648438 151.46875 Z M 578.882812 155 " clip-rule="nonzero"/>
    </clipPath>
    <clipPath id="c4c6f65854">
      <path d="M 578.882812 155 L 572.652344 915.476562 L 141.417969 911.945312 L 147.648438 151.46875 Z M 578.882812 155 " clip-rule="nonzero"/>
    </clipPath>
    <clipPath id="f7f5649e0a">
      <path d="M 166 510 L 212 510 L 212 535 L 166 535 Z M 166 510 " clip-rule="nonzero"/>
    </clipPath>
    <clipPath id="9356979b6b">
      <path d="M 578.882812 155 L 572.652344 915.476562 L 141.417969 911.945312 L 147.648438 151.46875 Z M 578.882812 155 " clip-rule="nonzero"/>
    </clipPath>
    <clipPath id="6a8153a98e">
      <path d="M 578.882812 155 L 572.652344 915.476562 L 141.417969 911.945312 L 147.648438 151.46875 Z M 578.882812 155 " clip-rule="nonzero"/>
    </clipPath>
    <clipPath id="6f149eeeb6">
      <path d="M 578.882812 155 L 572.652344 915.476562 L 141.417969 911.945312 L 147.648438 151.46875 Z M 578.882812 155 " clip-rule="nonzero"/>
    </clipPath>
    <clipPath id="0f6c13f93d">
      <path d="M 180 516 L 227 516 L 227 541 L 180 541 Z M 180 516 " clip-rule="nonzero"/>
    </clipPath>
    <clipPath id="2c6c329da6">
      <path d="M 578.882812 155 L 572.652344 915.476562 L 141.417969 911.945312 L 147.648438 151.46875 Z M 578.882812 155 " clip-rule="nonzero"/>
    </clipPath>
    <clipPath id="c2b8b69b01">
      <path d="M 578.882812 155 L 572.652344 915.476562 L 141.417969 911.945312 L 147.648438 151.46875 Z M 578.882812 155 " clip-rule="nonzero"/>
    </clipPath>
    <clipPath id="06ebc0a3ca">
      <path d="M 578.882812 155 L 572.652344 915.476562 L 141.417969 911.945312 L 147.648438 151.46875 Z M 578.882812 155 " clip-rule="nonzero"/>
    </clipPath>
    <clipPath id="4e10807245">
      <path d="M 171 495 L 217 495 L 217 520 L 171 520 Z M 171 495 " clip-rule="nonzero"/>
    </clipPath>
    <clipPath id="4e5e2df9a2">
      <path d="M 578.882812 155 L 572.652344 915.476562 L 141.417969 911.945312 L 147.648438 151.46875 Z M 578.882812 155 " clip-rule="nonzero"/>
    </clipPath>
    <clipPath id="7384145583">
      <path d="M 578.882812 155 L 572.652344 915.476562 L 141.417969 911.945312 L 147.648438 151.46875 Z M 578.882812 155 " clip-rule="nonzero"/>
    </clipPath>
    <clipPath id="3936cc193c">
      <path d="M 578.882812 155 L 572.652344 915.476562 L 141.417969 911.945312 L 147.648438 151.46875 Z M 578.882812 155 " clip-rule="nonzero"/>
    </clipPath>
    <clipPath id="1d0be47254">
      <path d="M 506 419 L 528 419 L 528 441 L 506 441 Z M 506 419 " clip-rule="nonzero"/>
    </clipPath>
    <clipPath id="331edcdb31">
      <path d="M 578.882812 155 L 572.652344 915.476562 L 141.417969 911.945312 L 147.648438 151.46875 Z M 578.882812 155 " clip-rule="nonzero"/>
    </clipPath>
    <clipPath id="483ac01cef">
      <path d="M 578.882812 155 L 572.652344 915.476562 L 141.417969 911.945312 L 147.648438 151.46875 Z M 578.882812 155 " clip-rule="nonzero"/>
    </clipPath>
    <clipPath id="c08d41dd72">
      <path d="M 578.882812 155 L 572.652344 915.476562 L 141.417969 911.945312 L 147.648438 151.46875 Z M 578.882812 155 " clip-rule="nonzero"/>
    </clipPath>
    <clipPath id="3226dec8df">
      <path d="M 359 638 L 380 638 L 380 659 L 359 659 Z M 359 638 " clip-rule="nonzero"/>
    </clipPath>
    <clipPath id="8e884e4caf">
      <path d="M 578.882812 155 L 572.652344 915.476562 L 141.417969 911.945312 L 147.648438 151.46875 Z M 578.882812 155 " clip-rule="nonzero"/>
    </clipPath>
    <clipPath id="a098170c59">
      <path d="M 578.882812 155 L 572.652344 915.476562 L 141.417969 911.945312 L 147.648438 151.46875 Z M 578.882812 155 " clip-rule="nonzero"/>
    </clipPath>
    <clipPath id="a937734543">
      <path d="M 578.882812 155 L 572.652344 915.476562 L 141.417969 911.945312 L 147.648438 151.46875 Z M 578.882812 155 " clip-rule="nonzero"/>
    </clipPath>
    <clipPath id="66c88800ee">
      <path d="M 469 841 L 507 841 L 507 879 L 469 879 Z M 469 841 " clip-rule="nonzero"/>
    </clipPath>
    <clipPath id="ec4eff42a8">
      <path d="M 578.882812 155 L 572.652344 915.476562 L 141.417969 911.945312 L 147.648438 151.46875 Z M 578.882812 155 " clip-rule="nonzero"/>
    </clipPath>
    <clipPath id="a7b3559939">
      <path d="M 578.882812 155 L 572.652344 915.476562 L 141.417969 911.945312 L 147.648438 151.46875 Z M 578.882812 155 " clip-rule="nonzero"/>
    </clipPath>
    <clipPath id="d4b1b45594">
      <path d="M 578.882812 155 L 572.652344 915.476562 L 141.417969 911.945312 L 147.648438 151.46875 Z M 578.882812 155 " clip-rule="nonzero"/>
    </clipPath>
    <clipPath id="c20ec55346">
      <path d="M 470 825 L 508 825 L 508 863 L 470 863 Z M 470 825 " clip-rule="nonzero"/>
    </clipPath>
    <clipPath id="d16e0ca82f">
      <path d="M 578.882812 155 L 572.652344 915.476562 L 141.417969 911.945312 L 147.648438 151.46875 Z M 578.882812 155 " clip-rule="nonzero"/>
    </clipPath>
    <clipPath id="035923ce68">
      <path d="M 578.882812 155 L 572.652344 915.476562 L 141.417969 911.945312 L 147.648438 151.46875 Z M 578.882812 155 " clip-rule="nonzero"/>
    </clipPath>
    <clipPath id="9654950971">
      <path d="M 578.882812 155 L 572.652344 915.476562 L 141.417969 911.945312 L 147.648438 151.46875 Z M 578.882812 155 " clip-rule="nonzero"/>
    </clipPath>
    <clipPath id="00488223fa">
      <path d="M 453 841 L 491 841 L 491 879 L 453 879 Z M 453 841 " clip-rule="nonzero"/>
    </clipPath>
    <clipPath id="f272055340">
      <path d="M 578.882812 155 L 572.652344 915.476562 L 141.417969 911.945312 L 147.648438 151.46875 Z M 578.882812 155 " clip-rule="nonzero"/>
    </clipPath>
    <clipPath id="245f893a69">
      <path d="M 578.882812 155 L 572.652344 915.476562 L 141.417969 911.945312 L 147.648438 151.46875 Z M 578.882812 155 " clip-rule="nonzero"/>
    </clipPath>
    <clipPath id="9608033f3d">
      <path d="M 578.882812 155 L 572.652344 915.476562 L 141.417969 911.945312 L 147.648438 151.46875 Z M 578.882812 155 " clip-rule="nonzero"/>
    </clipPath>
  </defs>
  <g clip-path="url(#7d18cc2dbf)" style="opacity: 0.2;" transform="matrix(1.063722014427185, 0, 0, 1.063722014427185, -89.78031158447266, -158.99789428710938)">
    <g clip-path="url(#238397c1a4)">
      <g clip-path="url(#d1502c4599)">
        <g clip-path="url(#92e326bddf)">
          <path d="M 530.289062 238.84375 C 553.488281 234.480469 567.835938 213.367188 564.816406 190.257812 C 561.757812 166.84375 538.375 152.8125 516.269531 155.703125 C 514.050781 155.992188 513.265625 158.554688 513.554688 160.398438 C 517.566406 185.640625 521.582031 210.882812 525.601562 236.128906 C 526.375 241.003906 533.773438 238.992188 533.003906 234.152344 C 528.984375 208.90625 524.96875 183.664062 520.957031 158.421875 C 520.050781 159.984375 519.148438 161.546875 518.242188 163.113281 C 537.417969 160.605469 553.898438 173.53125 557.414062 192.234375 C 560.980469 211.25 546.199219 228.070312 528.316406 231.433594 C 523.460938 232.347656 525.457031 239.75 530.289062 238.84375 " fill-opacity="1" fill-rule="nonzero" style="fill: rgb(47, 89, 70);"/>
        </g>
      </g>
    </g>
  </g>
  <g clip-path="url(#880e3831d4)" style="opacity: 0.2;" transform="matrix(1.063722014427185, 0, 0, 1.063722014427185, -89.78031158447266, -158.99789428710938)">
    <g clip-path="url(#119dba15f6)">
      <g clip-path="url(#ee9558ca05)">
        <g clip-path="url(#38bdfaf1e7)">
          <path d="M 291.425781 277.9375 C 297.121094 265.5 302.816406 253.058594 308.511719 240.621094 C 310.539062 236.164062 303.984375 232.210938 301.921875 236.699219 C 296.226562 249.136719 290.546875 261.574219 284.851562 274.015625 C 282.808594 278.472656 289.378906 282.433594 291.425781 277.9375 " fill-opacity="1" fill-rule="nonzero" style="fill: rgb(86, 140, 105);"/>
        </g>
      </g>
    </g>
  </g>
  <g clip-path="url(#284db23938)" style="opacity: 0.2;" transform="matrix(1.063722014427185, 0, 0, 1.063722014427185, -89.78031158447266, -158.99789428710938)">
    <g clip-path="url(#af207d30a6)">
      <g clip-path="url(#fd25fcd0b1)">
        <g clip-path="url(#fbba37b3f3)">
          <path d="M 306.578125 273 C 312.273438 260.554688 317.96875 248.117188 323.664062 235.679688 C 325.707031 231.226562 319.136719 227.265625 317.074219 231.753906 C 311.378906 244.191406 305.699219 256.632812 300.003906 269.070312 C 297.960938 273.527344 304.53125 277.488281 306.578125 273 " fill-opacity="1" fill-rule="nonzero" style="fill: rgb(86, 140, 105);"/>
        </g>
      </g>
    </g>
  </g>
  <g clip-path="url(#aceef9bd48)" style="opacity: 0.2;" transform="matrix(1.063722014427185, 0, 0, 1.063722014427185, -89.78031158447266, -158.99789428710938)">
    <g clip-path="url(#06af4731e0)">
      <g clip-path="url(#6e704ccb51)">
        <g clip-path="url(#3a1daee0aa)">
          <path d="M 285.261719 263.222656 C 290.941406 250.78125 296.636719 238.34375 302.332031 225.90625 C 304.378906 221.445312 297.804688 217.484375 295.746094 221.976562 C 290.066406 234.417969 284.371094 246.859375 278.671875 259.296875 C 276.628906 263.753906 283.203125 267.710938 285.261719 263.222656 " fill-opacity="1" fill-rule="nonzero" style="fill: rgb(86, 140, 105);"/>
        </g>
      </g>
    </g>
  </g>
  <g clip-path="url(#c39629e1b7)" style="opacity: 0.2;" transform="matrix(1.0131700038909912, 0, 0, 1.0131700038909912, -60.605716705322266, -126.44550323486328)">
    <g clip-path="url(#03825ad5ba)">
      <g clip-path="url(#817e115800)">
        <g clip-path="url(#a29cb74c92)">
          <path d="M 149.21875 210.636719 C 165.828125 220.402344 185.882812 215.683594 196.695312 199.839844 C 207.539062 183.929688 200.9375 162.59375 185.894531 152.328125 C 184.144531 151.125 181.714844 151.980469 180.660156 153.664062 C 169.730469 170.898438 158.796875 188.140625 147.882812 205.378906 C 145.230469 209.570312 151.832031 213.46875 154.472656 209.304688 C 165.386719 192.066406 176.316406 174.824219 187.234375 157.585938 C 185.480469 158.027344 183.730469 158.472656 181.980469 158.921875 C 194.386719 167.394531 197.675781 183.039062 190.105469 195.917969 C 182.507812 208.867188 165.351562 211.230469 153.136719 204.042969 C 148.867188 201.535156 144.964844 208.132812 149.21875 210.636719 " fill-opacity="1" fill-rule="nonzero" style="fill: rgb(86, 140, 105);"/>
        </g>
      </g>
    </g>
  </g>
  <g clip-path="url(#a68521572c)" style="opacity: 0.2;" transform="matrix(1.063722014427185, 0, 0, 1.063722014427185, -89.78031158447266, -158.99789428710938)">
    <g clip-path="url(#6b84fb9d99)">
      <g clip-path="url(#0ab059ccf6)">
        <g clip-path="url(#33745bd805)">
          <path d="M 420.164062 224.988281 C 414.539062 224.941406 410.023438 220.351562 410.070312 214.734375 C 410.117188 209.113281 414.707031 204.597656 420.328125 204.644531 C 425.9375 204.691406 430.449219 209.28125 430.402344 214.902344 C 430.359375 220.519531 425.773438 225.035156 420.164062 224.988281 " fill-opacity="1" fill-rule="nonzero" style="fill: rgb(47, 89, 70);"/>
        </g>
      </g>
    </g>
  </g>
  <g clip-path="url(#bf55e06fa4)" style="opacity: 0.2;" transform="matrix(1.063722014427185, 0, 0, 1.063722014427185, -89.78031158447266, -158.99789428710938)">
    <g clip-path="url(#de55b67450)">
      <g clip-path="url(#5db640f521)">
        <g clip-path="url(#3c9d4b3711)">
          <path d="M 359.796875 325.84375 C 350.269531 330.792969 340.730469 335.730469 331.21875 340.683594 C 325.660156 343.570312 320.351562 346.054688 319.332031 352.796875 C 317.617188 364.039062 328.933594 370.789062 338.484375 366.742188 C 348.261719 362.601562 357.644531 356.789062 367.0625 351.882812 C 372.621094 349.015625 377.925781 346.527344 378.964844 339.789062 C 380.664062 328.542969 369.363281 321.792969 359.796875 325.84375 C 355.246094 327.769531 359.113281 334.394531 363.605469 332.5 C 367.527344 330.828125 370.3125 333.335938 371.355469 336.949219 C 372.742188 341.667969 366.289062 343.671875 363.253906 345.242188 C 353.730469 350.195312 344.203125 355.148438 334.675781 360.082031 C 330.859375 362.078125 327.910156 359.015625 326.925781 355.632812 C 325.554688 350.914062 331.992188 348.910156 335.023438 347.339844 C 344.550781 342.390625 354.078125 337.4375 363.605469 332.5 C 367.992188 330.21875 364.183594 323.5625 359.796875 325.84375 " fill-opacity="1" fill-rule="nonzero" style="fill: rgb(86, 140, 105);"/>
        </g>
      </g>
    </g>
  </g>
  <g clip-path="url(#0de6dc45f9)" style="opacity: 0.2;" transform="matrix(1.063722014427185, 0, 0, 1.063722014427185, -89.78031158447266, -158.99789428710938)">
    <g clip-path="url(#9a1b255d9a)">
      <g clip-path="url(#fe1e22d38b)">
        <g clip-path="url(#225dbb8a6d)">
          <path d="M 566.875 370.222656 C 561.261719 370.175781 556.746094 365.566406 556.792969 359.957031 C 556.839844 354.34375 561.425781 349.824219 567.042969 349.871094 C 572.652344 349.917969 577.167969 354.507812 577.121094 360.121094 C 577.078125 365.734375 572.484375 370.269531 566.875 370.222656 " fill-opacity="1" fill-rule="nonzero" style="fill: rgb(86, 140, 105);"/>
        </g>
      </g>
    </g>
  </g>
  <g clip-path="url(#2bf27ff51d)" style="opacity: 0.2;" transform="matrix(1.063722014427185, 0, 0, 1.063722014427185, -89.78031158447266, -158.99789428710938)">
    <g clip-path="url(#fcce746e7c)">
      <g clip-path="url(#0e0317cba5)">
        <g clip-path="url(#a428ed1787)">
          <path fill="#eba94a" d="M 509.636719 326.503906 C 500.03125 316.761719 490.425781 307.027344 480.816406 297.289062 C 477.34375 293.769531 471.882812 299.144531 475.355469 302.667969 C 484.960938 312.40625 494.570312 322.144531 504.167969 331.871094 C 507.648438 335.398438 513.109375 330.027344 509.636719 326.503906 " fill-opacity="1" fill-rule="nonzero"/>
        </g>
      </g>
    </g>
  </g>
  <g clip-path="url(#762b03c2c5)" style="opacity: 0.2;" transform="matrix(1.063722014427185, 0, 0, 1.063722014427185, -89.78031158447266, -158.99789428710938)">
    <g clip-path="url(#87a396c335)">
      <g clip-path="url(#ccd79685ff)">
        <g clip-path="url(#07eb21be03)">
          <path fill="#eba94a" d="M 510.386719 310.574219 C 500.785156 300.832031 491.175781 291.09375 481.570312 281.359375 C 478.097656 277.839844 472.636719 283.214844 476.109375 286.734375 C 485.714844 296.472656 495.320312 306.207031 504.921875 315.941406 C 508.402344 319.46875 513.863281 314.082031 510.386719 310.574219 " fill-opacity="1" fill-rule="nonzero"/>
        </g>
      </g>
    </g>
  </g>
  <g clip-path="url(#0ca0dc2b67)" style="opacity: 0.2;" transform="matrix(1.063722014427185, 0, 0, 1.063722014427185, -89.78031158447266, -158.99789428710938)">
    <g clip-path="url(#a937bd6ae7)">
      <g clip-path="url(#89aa5e4b10)">
        <g clip-path="url(#2f16058253)">
          <path fill="#eba94a" d="M 493.695312 327.0625 C 484.089844 317.320312 474.484375 307.59375 464.878906 297.847656 C 461.40625 294.328125 455.941406 299.703125 459.417969 303.222656 C 469.023438 312.964844 478.628906 322.707031 488.234375 332.445312 C 491.707031 335.957031 497.167969 330.585938 493.695312 327.0625 " fill-opacity="1" fill-rule="nonzero"/>
        </g>
      </g>
    </g>
  </g>
  <g clip-path="url(#e0de3b5ff4)" style="opacity: 0.2;" transform="matrix(1.063722014427185, 0, 0, 1.063722014427185, -89.78031158447266, -158.99789428710938)">
    <g clip-path="url(#3a32374519)">
      <g clip-path="url(#9eb2362c0c)">
        <g clip-path="url(#5879bf4d83)">
          <path fill="#eba94a" d="M 214.304688 345.449219 C 208.699219 345.402344 204.183594 340.808594 204.230469 335.195312 C 204.277344 329.566406 208.863281 325.066406 214.472656 325.113281 C 220.097656 325.15625 224.609375 329.734375 224.566406 335.363281 C 224.519531 340.976562 219.929688 345.492188 214.304688 345.449219 " fill-opacity="1" fill-rule="nonzero"/>
        </g>
      </g>
    </g>
  </g>
  <g clip-path="url(#bc81d60874)" style="opacity: 0.2;" transform="matrix(1.063722014427185, 0, 0, 1.063722014427185, -89.78031158447266, -158.99789428710938)">
    <g clip-path="url(#e1e470261f)">
      <g clip-path="url(#d7c139b73d)">
        <g clip-path="url(#203087e631)">
          <path d="M 328.417969 480.519531 C 307.785156 490.289062 298.332031 514.1875 307.003906 535.375 C 315.777344 556.890625 341.136719 566.34375 362.203125 557.730469 C 364.648438 556.722656 365.617188 554.582031 364.535156 552.121094 C 354.226562 528.722656 343.9375 505.339844 333.644531 481.945312 C 331.660156 477.417969 325.023438 481.277344 326.996094 485.753906 C 337.285156 509.152344 347.589844 532.535156 357.882812 555.929688 C 358.664062 554.066406 359.445312 552.1875 360.226562 550.320312 C 342.789062 557.449219 323.945312 551.082031 314.933594 534.382812 C 305.332031 516.636719 314.960938 495.351562 332.222656 487.179688 C 336.699219 485.066406 332.863281 478.410156 328.417969 480.519531 " fill-opacity="1" fill-rule="nonzero" style="fill: rgb(86, 140, 105);"/>
        </g>
      </g>
    </g>
  </g>
  <g clip-path="url(#c27f872d91)" style="opacity: 0.2;" transform="matrix(1.063722014427185, 0, 0, 1.063722014427185, -89.78031158447266, -158.99789428710938)">
    <g clip-path="url(#d17bec7239)">
      <g clip-path="url(#7d072794a8)">
        <g clip-path="url(#cd48deb022)">
          <path d="M 419.152344 445.484375 C 420.789062 459.070312 422.425781 472.65625 424.0625 486.242188 C 424.644531 491.078125 432.320312 491.203125 431.726562 486.304688 C 430.089844 472.71875 428.453125 459.132812 426.820312 445.546875 C 426.238281 440.710938 418.566406 440.585938 419.152344 445.484375 " fill-opacity="1" fill-rule="nonzero" style="fill: rgb(86, 140, 105);"/>
        </g>
      </g>
    </g>
  </g>
  <g clip-path="url(#ee16a04226)" style="opacity: 0.2;" transform="matrix(1.063722014427185, 0, 0, 1.063722014427185, -89.78031158447266, -158.99789428710938)">
    <g clip-path="url(#e08b6b6623)">
      <g clip-path="url(#b822587c69)">
        <g clip-path="url(#5b07394b5a)">
          <path d="M 408.816406 457.621094 C 410.453125 471.207031 412.089844 484.78125 413.726562 498.367188 C 414.296875 503.203125 421.976562 503.328125 421.386719 498.429688 C 419.75 484.84375 418.117188 471.273438 416.480469 457.683594 C 415.890625 452.847656 408.230469 452.726562 408.816406 457.621094 " fill-opacity="1" fill-rule="nonzero" style="fill: rgb(86, 140, 105);"/>
        </g>
      </g>
    </g>
  </g>
  <g clip-path="url(#2a248342ff)" style="opacity: 0.2;" transform="matrix(1.063722014427185, 0, 0, 1.063722014427185, -89.78031158447266, -158.99789428710938)">
    <g clip-path="url(#4525407163)">
      <g clip-path="url(#40954f20c8)">
        <g clip-path="url(#d7409c00a1)">
          <path d="M 432.101562 454.808594 C 433.738281 468.394531 435.375 481.980469 437.011719 495.566406 C 437.589844 500.402344 445.265625 500.527344 444.675781 495.628906 C 443.039062 482.042969 441.402344 468.457031 439.765625 454.871094 C 439.183594 450.035156 431.515625 449.910156 432.101562 454.808594 " fill-opacity="1" fill-rule="nonzero" style="fill: rgb(86, 140, 105);"/>
        </g>
      </g>
    </g>
  </g>
  <g clip-path="url(#b1e2eb4349)" style="opacity: 0.2;" transform="matrix(1.063722014427185, 0, 0, 1.063722014427185, -8.818315505981445, -259.17120361328125)">
    <g clip-path="url(#f287c05cb1)">
      <g clip-path="url(#537fba3779)">
        <g clip-path="url(#f8f0c2ffde)">
          <path d="M 525.824219 784.019531 C 549.023438 779.65625 563.371094 758.53125 560.351562 735.421875 C 557.292969 712.007812 533.910156 697.984375 511.800781 700.871094 C 509.585938 701.160156 508.796875 703.730469 509.089844 705.570312 C 513.101562 730.820312 517.117188 756.050781 521.136719 781.296875 C 521.910156 786.179688 529.308594 784.15625 528.539062 779.320312 C 524.519531 754.070312 520.503906 728.839844 516.492188 703.59375 C 515.585938 705.148438 514.683594 706.722656 513.777344 708.277344 C 532.953125 705.78125 549.433594 718.707031 552.949219 737.402344 C 556.515625 756.417969 541.734375 773.246094 523.851562 776.613281 C 518.992188 777.523438 520.992188 784.917969 525.824219 784.019531 " fill-opacity="1" fill-rule="nonzero" style="fill: rgb(86, 140, 105);"/>
        </g>
      </g>
    </g>
  </g>
  <g clip-path="url(#c00da27901)" style="opacity: 0.2;" transform="matrix(1.063722014427185, 0, 0, 1.063722014427185, -272.2879333496094, -572.0413818359375)">
    <g clip-path="url(#904098243f)">
      <g clip-path="url(#84337c3811)">
        <g clip-path="url(#da9ed8d544)">
          <path d="M 286.960938 823.121094 C 292.65625 810.667969 298.351562 798.230469 304.046875 785.792969 C 306.074219 781.347656 299.519531 777.382812 297.457031 781.875 C 291.761719 794.3125 286.082031 806.75 280.386719 819.1875 C 278.34375 823.648438 284.914062 827.597656 286.960938 823.121094 " fill-opacity="1" fill-rule="nonzero" style="fill: rgb(86, 140, 105);"/>
        </g>
      </g>
    </g>
  </g>
  <g clip-path="url(#9581a9225c)" style="opacity: 0.2;" transform="matrix(1.063722014427185, 0, 0, 1.063722014427185, -272.2879333496094, -572.0413818359375)">
    <g clip-path="url(#84c4bc8ed8)">
      <g clip-path="url(#a906640dba)">
        <g clip-path="url(#039a659cbd)">
          <path d="M 302.109375 818.167969 L 319.199219 780.855469 C 321.242188 776.394531 314.667969 772.429688 312.609375 776.9375 C 306.914062 789.359375 301.234375 801.8125 295.539062 814.25 C 293.492188 818.695312 300.066406 822.660156 302.109375 818.167969 " fill-opacity="1" fill-rule="nonzero" style="fill: rgb(86, 140, 105);"/>
        </g>
      </g>
    </g>
  </g>
  <g clip-path="url(#8796e89efb)" style="opacity: 0.2;" transform="matrix(1.063722014427185, 0, 0, 1.063722014427185, -272.2879333496094, -572.0413818359375)">
    <g clip-path="url(#65548be1b3)">
      <g clip-path="url(#4187cf7a3d)">
        <g clip-path="url(#2a63a2dc5a)">
          <path d="M 280.796875 808.394531 C 286.476562 795.957031 292.171875 783.519531 297.867188 771.078125 C 299.914062 766.617188 293.339844 762.667969 291.28125 767.144531 C 285.601562 779.582031 279.902344 792.035156 274.207031 804.472656 C 272.164062 808.921875 278.738281 812.886719 280.796875 808.394531 " fill-opacity="1" fill-rule="nonzero" style="fill: rgb(86, 140, 105);"/>
        </g>
      </g>
    </g>
  </g>
  <g clip-path="url(#7cc646b1d6)" style="opacity: 0.2;" transform="matrix(1.063722014427185, 0, 0, 1.063722014427185, -82.26441192626953, -164.63482666015625)">
    <g clip-path="url(#0421caf323)">
      <g clip-path="url(#2d71805de1)">
        <g clip-path="url(#22eac0499a)">
          <path d="M 522.113281 545.847656 C 538.714844 555.601562 558.78125 550.890625 569.585938 535.042969 C 580.429688 519.132812 573.828125 497.808594 558.796875 487.546875 C 557.035156 486.335938 554.609375 487.191406 553.542969 488.867188 C 542.625 506.109375 531.699219 523.351562 520.777344 540.59375 C 518.128906 544.773438 524.722656 548.675781 527.367188 544.511719 C 538.285156 527.269531 549.207031 510.027344 560.128906 492.789062 C 558.378906 493.234375 556.625 493.679688 554.875 494.125 C 567.28125 502.601562 570.558594 518.242188 563 531.125 C 555.394531 544.082031 538.246094 546.441406 526.035156 539.253906 C 521.769531 536.75 517.851562 543.34375 522.113281 545.847656 " fill-opacity="1" fill-rule="nonzero" style="fill: rgb(47, 89, 70);"/>
        </g>
      </g>
    </g>
  </g>
  <g clip-path="url(#70656a8798)" style="opacity: 0.2;" transform="matrix(1.063722014427185, 0, 0, 1.063722014427185, 142.12779235839844, -706.5206298828125)">
    <g clip-path="url(#c95a9e66bb)">
      <g clip-path="url(#04ff19ff16)">
        <g clip-path="url(#126d9bc810)">
          <path d="M 415.699219 770.160156 C 410.074219 770.113281 405.558594 765.519531 405.605469 759.90625 C 405.652344 754.277344 410.242188 749.777344 415.863281 749.824219 C 421.472656 749.867188 425.984375 754.445312 425.9375 760.074219 C 425.890625 765.6875 421.304688 770.203125 415.699219 770.160156 " fill-opacity="1" fill-rule="nonzero" style="fill: rgb(47, 89, 70);"/>
        </g>
      </g>
    </g>
  </g>
  <g clip-path="url(#521c0b2e36)" style="opacity: 0.2;" transform="matrix(1.063722014427185, 0, 0, 1.063722014427185, -89.78031158447266, -158.99789428710938)">
    <g clip-path="url(#a5e6334a7f)">
      <g clip-path="url(#2a07acbe2e)">
        <g clip-path="url(#206083f3cf)">
          <path d="M 280.519531 438.242188 C 274.894531 438.195312 270.378906 433.605469 270.425781 427.992188 C 270.472656 422.378906 275.0625 417.863281 280.683594 417.90625 C 286.292969 417.953125 290.808594 422.546875 290.761719 428.160156 C 290.714844 433.773438 286.128906 438.289062 280.519531 438.242188 " fill-opacity="1" fill-rule="nonzero" style="fill: rgb(47, 89, 70);"/>
        </g>
      </g>
    </g>
  </g>
  <g clip-path="url(#d8b80347e2)" style="opacity: 0.2;" transform="matrix(1.063722014427185, 0, 0, 1.063722014427185, -67.23257446289062, -161.81634521484375)">
    <g clip-path="url(#c4185d61ea)">
      <g clip-path="url(#58db5bc9ea)">
        <g clip-path="url(#dd8cb07a77)">
          <path d="M 494.332031 609.824219 C 486.222656 602.777344 478.117188 595.75 470.007812 588.703125 C 465.714844 584.972656 460.769531 579.886719 454.429688 581.660156 C 443.980469 584.566406 440.089844 596.542969 447.800781 604.441406 C 455.210938 612.050781 464.113281 618.609375 472.125 625.578125 C 476.410156 629.308594 481.355469 634.394531 487.703125 632.621094 C 498.144531 629.714844 502.042969 617.738281 494.332031 609.824219 C 490.875 606.28125 485.414062 611.667969 488.871094 615.207031 C 492.011719 618.421875 491.1875 622.207031 487.546875 624.582031 C 483.261719 627.402344 478.1875 620.71875 475.375 618.273438 C 468.003906 611.878906 460.632812 605.46875 453.261719 599.074219 C 449.808594 596.070312 451.167969 591.925781 454.585938 589.699219 C 458.871094 586.878906 463.945312 593.5625 466.757812 596.007812 C 474.128906 602.402344 481.5 608.796875 488.871094 615.207031 C 492.578125 618.429688 498.070312 613.074219 494.332031 609.824219 " fill-opacity="1" fill-rule="nonzero" style="fill: rgb(47, 89, 70);"/>
        </g>
      </g>
    </g>
  </g>
  <g clip-path="url(#9c15e5e5e7)" style="opacity: 0.2;" transform="matrix(1.063722014427185, 0, 0, 1.063722014427185, -89.78031158447266, -158.99789428710938)">
    <g clip-path="url(#b7624081ac)">
      <g clip-path="url(#c10d45a45b)">
        <g clip-path="url(#fbd6faed53)">
          <path d="M 253.957031 622.011719 C 248.347656 621.964844 243.832031 617.371094 243.878906 611.757812 C 243.925781 606.132812 248.515625 601.613281 254.121094 601.660156 C 259.730469 601.707031 264.246094 606.296875 264.199219 611.925781 C 264.152344 617.539062 259.566406 622.054688 253.957031 622.011719 " fill-opacity="1" fill-rule="nonzero" style="fill: rgb(47, 89, 70);"/>
        </g>
      </g>
    </g>
  </g>
  <g clip-path="url(#7a4c0d2dcb)" style="opacity: 0.2;" transform="matrix(1.063722014427185, 0, 0, 1.063722014427185, -556.341064453125, -835.5109252929688)">
    <g clip-path="url(#97c4369639)">
      <g clip-path="url(#a5f5f4d75e)">
        <g clip-path="url(#e7a62a20e8)">
          <path d="M 562.410156 915.390625 C 556.792969 915.347656 552.28125 910.753906 552.328125 905.125 C 552.375 899.511719 556.960938 894.996094 562.578125 895.039062 C 568.183594 895.085938 572.703125 899.679688 572.65625 905.292969 C 572.609375 910.921875 568.019531 915.4375 562.410156 915.390625 " fill-opacity="1" fill-rule="nonzero" style="fill: rgb(86, 140, 105);"/>
        </g>
      </g>
    </g>
  </g>
  <g clip-path="url(#4999e380bf)" style="opacity: 0.2;" transform="matrix(1.063722014427185, 0, 0, 1.063722014427185, -309.33831787109375, -407.3728637695312)">
    <g clip-path="url(#73fab243c9)">
      <g clip-path="url(#2e65931833)">
        <g clip-path="url(#c4c6f65854)">
          <path d="M 355.332031 871.011719 C 345.804688 875.964844 336.261719 880.917969 326.75 885.871094 C 321.195312 888.753906 315.886719 891.226562 314.867188 897.964844 C 313.152344 909.210938 324.46875 915.957031 334.015625 911.910156 C 343.796875 907.773438 353.179688 901.960938 362.597656 897.054688 C 368.152344 894.183594 373.460938 891.695312 374.496094 884.957031 C 376.199219 873.714844 364.898438 866.964844 355.332031 871.011719 C 350.78125 872.9375 354.648438 879.566406 359.140625 877.667969 C 363.0625 876 365.847656 878.507812 366.890625 882.117188 C 368.273438 886.855469 361.824219 888.839844 358.789062 890.410156 L 330.210938 905.269531 C 326.390625 907.246094 323.445312 904.1875 322.460938 900.804688 C 321.089844 896.085938 327.527344 894.082031 330.558594 892.511719 C 340.085938 887.558594 349.613281 882.621094 359.140625 877.667969 C 363.527344 875.390625 359.71875 868.730469 355.332031 871.011719 " fill-opacity="1" fill-rule="nonzero" style="fill: rgb(86, 140, 105);"/>
        </g>
      </g>
    </g>
  </g>
  <g clip-path="url(#f7f5649e0a)" style="opacity: 0.2;" transform="matrix(1.063722014427185, 0, 0, 1.063722014427185, -89.78031158447266, -158.99789428710938)">
    <g clip-path="url(#9356979b6b)">
      <g clip-path="url(#6a8153a98e)">
        <g clip-path="url(#6f149eeeb6)">
          <path fill="#eba94a" d="M 172.105469 533.765625 C 184.609375 528.253906 197.113281 522.726562 209.636719 517.214844 C 214.15625 515.230469 210.304688 508.585938 205.828125 510.558594 C 193.308594 516.085938 180.804688 521.597656 168.28125 527.109375 C 163.777344 529.109375 167.613281 535.738281 172.105469 533.765625 " fill-opacity="1" fill-rule="nonzero"/>
        </g>
      </g>
    </g>
  </g>
  <g clip-path="url(#0f6c13f93d)" style="opacity: 0.2;" transform="matrix(1.063722014427185, 0, 0, 1.063722014427185, -89.78031158447266, -158.99789428710938)">
    <g clip-path="url(#2c6c329da6)">
      <g clip-path="url(#c2b8b69b01)">
        <g clip-path="url(#06ebc0a3ca)">
          <path fill="#eba94a" d="M 186.703125 540.140625 C 199.222656 534.632812 211.730469 529.121094 224.25 523.59375 C 228.757812 521.605469 224.917969 514.964844 220.425781 516.9375 C 207.921875 522.464844 195.402344 527.972656 182.898438 533.484375 C 178.375 535.472656 182.230469 542.113281 186.703125 540.140625 " fill-opacity="1" fill-rule="nonzero"/>
        </g>
      </g>
    </g>
  </g>
  <g clip-path="url(#4e10807245)" style="opacity: 0.2;" transform="matrix(1.063722014427185, 0, 0, 1.063722014427185, -89.78031158447266, -158.99789428710938)">
    <g clip-path="url(#4e5e2df9a2)">
      <g clip-path="url(#7384145583)">
        <g clip-path="url(#3936cc193c)">
          <path fill="#eba94a" d="M 177.257812 518.652344 C 189.761719 513.144531 202.28125 507.632812 214.785156 502.121094 C 219.308594 500.117188 215.453125 493.492188 210.976562 495.464844 C 198.472656 500.976562 185.953125 506.484375 173.433594 512.011719 C 168.925781 514 172.765625 520.640625 177.257812 518.652344 " fill-opacity="1" fill-rule="nonzero"/>
        </g>
      </g>
    </g>
  </g>
  <g clip-path="url(#1d0be47254)" style="opacity: 0.2;" transform="matrix(1.063722014427185, 0, 0, 1.063722014427185, -89.78031158447266, -158.99789428710938)">
    <g clip-path="url(#331edcdb31)">
      <g clip-path="url(#483ac01cef)">
        <g clip-path="url(#c08d41dd72)">
          <path fill="#eba94a" d="M 516.78125 440.179688 C 511.171875 440.132812 506.65625 435.539062 506.699219 429.925781 C 506.746094 424.3125 511.339844 419.796875 516.949219 419.84375 C 522.5625 419.886719 527.074219 424.480469 527.03125 430.09375 C 526.984375 435.707031 522.398438 440.222656 516.78125 440.179688 " fill-opacity="1" fill-rule="nonzero"/>
        </g>
      </g>
    </g>
  </g>
  <g clip-path="url(#3226dec8df)" style="opacity: 0.2;" transform="matrix(1.063722014427185, 0, 0, 1.063722014427185, -89.78031158447266, -158.99789428710938)">
    <g clip-path="url(#8e884e4caf)">
      <g clip-path="url(#a098170c59)">
        <g clip-path="url(#a937734543)">
          <path fill="#eba94a" d="M 369.5625 658.648438 C 363.953125 658.601562 359.4375 654.007812 359.484375 648.378906 C 359.53125 642.769531 364.121094 638.25 369.730469 638.296875 C 375.351562 638.34375 379.867188 642.933594 379.820312 648.546875 C 379.773438 654.175781 375.1875 658.691406 369.5625 658.648438 " fill-opacity="1" fill-rule="nonzero"/>
        </g>
      </g>
    </g>
  </g>
  <g clip-path="url(#66c88800ee)" style="opacity: 0.2;" transform="matrix(1.063722014427185, 0, 0, 1.063722014427185, 77.63265991210938, -569.2969360351562)">
    <g clip-path="url(#ec4eff42a8)">
      <g clip-path="url(#a7b3559939)">
        <g clip-path="url(#d4b1b45594)">
          <path fill="#eba94a" d="M 505.171875 871.671875 C 495.566406 861.929688 485.960938 852.191406 476.351562 842.464844 C 472.878906 838.9375 467.417969 844.324219 470.890625 847.832031 C 480.496094 857.574219 490.105469 867.316406 499.703125 877.042969 C 503.183594 880.566406 508.644531 875.199219 505.171875 871.671875 " fill-opacity="1" fill-rule="nonzero"/>
        </g>
      </g>
    </g>
  </g>
  <g clip-path="url(#c20ec55346)" style="opacity: 0.2;" transform="matrix(1.063722014427185, 0, 0, 1.063722014427185, 77.63265991210938, -569.2969360351562)">
    <g clip-path="url(#d16e0ca82f)">
      <g clip-path="url(#035923ce68)">
        <g clip-path="url(#9654950971)">
          <path fill="#eba94a" d="M 505.917969 855.742188 C 496.316406 846 486.710938 836.261719 477.105469 826.535156 C 473.632812 823.007812 468.171875 828.378906 471.644531 831.902344 C 481.25 841.644531 490.855469 851.386719 500.457031 861.113281 C 503.9375 864.636719 509.398438 859.269531 505.917969 855.742188 " fill-opacity="1" fill-rule="nonzero"/>
        </g>
      </g>
    </g>
  </g>
  <g clip-path="url(#00488223fa)" style="opacity: 0.2;" transform="matrix(1.063722014427185, 0, 0, 1.063722014427185, 77.63265991210938, -569.2969360351562)">
    <g clip-path="url(#f272055340)">
      <g clip-path="url(#245f893a69)">
        <g clip-path="url(#9608033f3d)">
          <path fill="#eba94a" d="M 489.230469 872.230469 C 479.625 862.492188 470.019531 852.765625 460.414062 843.023438 C 456.9375 839.5 451.476562 844.867188 454.949219 848.410156 C 464.554688 858.132812 474.164062 867.875 483.769531 877.617188 C 487.242188 881.140625 492.703125 875.757812 489.230469 872.230469 " fill-opacity="1" fill-rule="nonzero"/>
        </g>
      </g>
    </g>
  </g>
</svg>